<svg version="1.1" id="Layer_1" xmlns="http://www.w3.org/2000/svg" xmlns:xlink="http://www.w3.org/1999/xlink" x="0px" y="0px"
	 width="100%" viewBox="0 0 500 500" enable-background="new 0 0 500 500" xml:space="preserve">
<path fill="#FFFFFF" opacity="1.000000" stroke="none" 
	d="
M284.000000,501.000000 
	C189.333359,501.000000 95.166710,501.000000 1.000051,501.000000 
	C1.000034,334.333405 1.000034,167.666794 1.000017,1.000140 
	C167.666565,1.000093 334.333130,1.000093 500.999756,1.000047 
	C500.999847,167.666519 500.999847,334.333038 500.999939,500.999786 
	C428.833344,501.000000 356.666656,501.000000 284.000000,501.000000 
M206.796402,170.883621 
	C207.426834,171.088364 208.064743,171.272766 208.686646,171.500778 
	C245.266571,184.911255 282.692230,192.661835 321.716217,185.976715 
	C367.088684,178.204056 402.850189,155.365387 426.696350,115.475067 
	C442.571533,88.918724 448.232330,59.626514 448.193115,28.886343 
	C442.793793,28.886343 437.747345,28.886343 432.599243,28.886343 
	C432.385162,31.586201 432.298065,33.916309 432.002106,36.219582 
	C429.906616,52.528225 423.417908,66.723320 410.387756,77.046684 
	C391.439484,92.058807 369.777679,95.853004 347.446655,87.245377 
	C329.554443,80.348724 312.534241,71.067673 295.452209,62.217258 
	C262.245850,45.012642 228.411789,29.827423 190.722290,25.454884 
	C167.307724,22.738449 144.131317,23.435175 121.507736,30.602249 
	C71.267334,46.518234 52.522968,93.221085 53.686306,128.255325 
	C54.738667,159.947495 72.723175,181.349609 95.502289,200.543900 
	C99.507118,196.738007 103.158859,193.267685 106.861763,189.748718 
	C93.323868,178.410400 93.887711,155.623428 105.149269,146.040894 
	C114.255562,138.292282 124.846893,137.877533 135.255966,141.552643 
	C149.474152,146.572662 163.197266,152.979294 177.266678,158.446472 
	C181.056946,159.919312 181.958969,161.911179 181.954269,165.770172 
	C181.838074,261.268127 181.862442,356.766235 181.861801,452.264313 
	C181.861801,454.185638 181.861816,456.106995 181.861816,457.961670 
	C228.493271,457.961670 274.442322,457.961670 320.875763,457.961670 
	C320.875763,449.144470 320.875763,440.524933 320.875763,431.905426 
	C320.875732,377.573181 321.041290,323.240173 320.793243,268.909058 
	C320.695679,247.543396 316.363617,231.746170 288.520325,223.991470 
	C277.962463,221.050980 267.233551,218.730331 256.638245,215.917618 
	C232.365540,209.473999 214.033340,196.102539 205.767578,171.243591 
	C205.767578,171.243591 206.034744,170.961426 206.796402,170.883621 
z"/>
<path fill="#010101" opacity="1.000000" stroke="none" 
	d="
M205.482605,171.507782 
	C214.033340,196.102539 232.365540,209.473999 256.638245,215.917618 
	C267.233551,218.730331 277.962463,221.050980 288.520325,223.991470 
	C316.363617,231.746170 320.695679,247.543396 320.793243,268.909058 
	C321.041290,323.240173 320.875732,377.573181 320.875763,431.905426 
	C320.875763,440.524933 320.875763,449.144470 320.875763,457.961670 
	C274.442322,457.961670 228.493271,457.961670 181.861816,457.961670 
	C181.861816,456.106995 181.861801,454.185638 181.861801,452.264313 
	C181.862442,356.766235 181.838074,261.268127 181.954269,165.770172 
	C181.958969,161.911179 181.056946,159.919312 177.266678,158.446472 
	C163.197266,152.979294 149.474152,146.572662 135.255966,141.552643 
	C124.846893,137.877533 114.255562,138.292282 105.149269,146.040894 
	C93.887711,155.623428 93.323868,178.410400 106.861763,189.748718 
	C103.158859,193.267685 99.507118,196.738007 95.502289,200.543900 
	C72.723175,181.349609 54.738667,159.947495 53.686306,128.255325 
	C52.522968,93.221085 71.267334,46.518234 121.507736,30.602249 
	C144.131317,23.435175 167.307724,22.738449 190.722290,25.454884 
	C228.411789,29.827423 262.245850,45.012642 295.452209,62.217258 
	C312.534241,71.067673 329.554443,80.348724 347.446655,87.245377 
	C369.777679,95.853004 391.439484,92.058807 410.387756,77.046684 
	C423.417908,66.723320 429.906616,52.528225 432.002106,36.219582 
	C432.298065,33.916309 432.385162,31.586201 432.599243,28.886343 
	C437.747345,28.886343 442.793793,28.886343 448.193115,28.886343 
	C448.232330,59.626514 442.571533,88.918724 426.696350,115.475067 
	C402.850189,155.365387 367.088684,178.204056 321.716217,185.976715 
	C282.692230,192.661835 245.266571,184.911255 208.686646,171.500778 
	C208.064743,171.272766 207.426834,171.088364 206.374374,170.696442 
	C205.795776,170.842102 205.639191,171.174942 205.482605,171.507782 
z"/>
<path fill="#FFFFFF" opacity="1.000000" stroke="none" 
	d="
M205.625092,171.375687 
	C205.639191,171.174942 205.795776,170.842102 205.993546,170.735352 
	C206.034744,170.961426 205.767578,171.243591 205.625092,171.375687 
z"/>
</svg>
