<svg version="1.1" id="Layer_1" xmlns="http://www.w3.org/2000/svg" xmlns:xlink="http://www.w3.org/1999/xlink" x="0px" y="0px"
	 width="100%" viewBox="0 0 349 416" enable-background="new 0 0 349 416" xml:space="preserve">
<path fill="#010101" opacity="1.000000" stroke="none" 
	d="
M1.000000,174.000000 
	C1.000000,173.250000 1.000000,172.500000 1.166874,171.286682 
	C1.222499,170.548904 1.111249,170.274445 0.999999,170.000000 
	C1.000000,113.715210 1.000000,57.430420 1.000000,1.000000 
	C113.687523,1.000000 226.375107,1.000000 339.566223,1.360358 
	C341.566589,4.832762 343.063477,7.944808 344.560333,11.056853 
	C344.975800,10.936331 345.391235,10.815808 345.806702,10.695285 
	C346.537781,7.463522 347.268890,4.231760 348.000000,0.999997 
	C348.666656,1.331949 349.783813,1.545089 349.909027,2.019847 
	C350.196320,3.109130 350.000000,4.325964 350.000000,5.491019 
	C350.000000,108.681572 350.000000,211.872131 349.641968,315.569336 
	C344.891876,319.137817 344.988342,320.609894 350.000000,327.000000 
	C350.000000,356.923950 350.000000,386.847870 350.000000,417.000000 
	C322.646210,417.000000 295.291748,417.000000 267.433777,416.652893 
	C265.831116,413.768555 264.732025,411.231323 263.586761,408.587433 
	C256.587555,408.735809 256.589478,408.735687 256.997406,415.508087 
	C257.027252,416.003632 257.000458,416.502625 257.000000,417.000000 
	C208.645767,417.000000 160.291550,417.000000 111.508987,416.632690 
	C112.444420,412.647675 113.808182,409.029968 115.171936,405.412262 
	C115.363678,405.788544 115.555420,406.164825 115.747162,406.541077 
	C119.066383,404.490234 122.435028,402.509949 125.625275,400.274994 
	C125.930695,400.061035 125.124092,398.259735 124.827942,397.174103 
	C122.473267,398.766693 120.752449,399.930573 119.031631,401.094452 
	C118.738304,400.678955 118.444977,400.263489 118.151649,399.847992 
	C119.774246,397.871521 121.396835,395.895050 123.957123,392.776398 
	C120.704155,391.826538 118.339279,390.451691 116.079536,390.606964 
	C109.786476,391.039307 111.415276,396.673553 110.778793,399.573517 
	C107.248718,401.112366 104.510590,402.409393 101.684128,403.471375 
	C100.895790,403.767578 99.833420,403.440063 98.919716,403.273071 
	C97.427650,403.000336 95.954445,402.624481 94.473282,402.292145 
	C95.116020,403.829468 95.470840,405.590057 96.456665,406.861298 
	C99.162727,410.350769 102.133804,413.634705 104.999992,417.000000 
	C104.555557,417.000000 104.111107,417.000000 103.182449,416.690063 
	C96.819870,410.127808 92.368050,410.345123 90.000000,417.000000 
	C60.374187,417.000000 30.748379,417.000000 1.000000,417.000000 
	C1.000000,340.979156 1.000000,264.958221 1.366665,188.465256 
	C6.997143,187.772049 3.356576,184.430145 3.432993,182.501068 
	C6.237857,181.204727 10.588292,183.531998 11.705452,177.950577 
	C7.139826,178.832336 3.500318,177.684601 1.000000,174.000000 
M181.613739,162.077881 
	C181.396057,162.352768 181.178375,162.627655 180.268616,163.000443 
	C130.883286,192.435684 77.833191,197.383484 22.036329,185.738831 
	C25.127216,207.690063 28.088423,228.720322 31.225006,250.996094 
	C46.864899,251.636002 62.420109,252.272461 78.264053,253.571075 
	C81.029564,261.548431 87.932899,256.004303 93.693687,257.689514 
	C91.733315,259.564178 90.321457,260.655090 89.272766,262.024170 
	C88.731186,262.731201 88.834656,263.932343 88.646683,264.910248 
	C89.637062,264.883118 90.983185,265.263916 91.559158,264.761597 
	C94.899040,261.848907 98.858078,259.084351 95.687553,252.720093 
	C100.558998,255.226166 103.827957,254.634796 106.844635,250.319489 
	C108.560539,250.203720 110.276451,250.087967 112.250725,250.421463 
	C112.853912,250.128998 113.457092,249.836517 114.805069,249.232590 
	C115.874092,249.170242 116.943115,249.107910 118.273605,249.473251 
	C118.871178,249.194305 119.468742,248.915344 120.787170,248.266205 
	C121.859283,248.181793 122.931389,248.097382 124.273018,248.456345 
	C124.867485,248.136047 125.461960,247.815765 126.754417,247.194077 
	C127.507919,247.148056 128.261429,247.102020 129.289261,247.493042 
	C129.878296,247.159348 130.467331,246.825653 131.751129,246.187241 
	C132.502014,246.129425 133.252884,246.071609 134.279526,246.463699 
	C134.869446,246.111832 135.459366,245.759964 136.668243,245.120102 
	C137.118851,245.105331 137.569473,245.090546 138.294601,245.513092 
	C138.881683,245.169037 139.468765,244.824997 140.668396,244.170380 
	C141.121292,244.147964 141.574203,244.125565 142.303497,244.537964 
	C142.887573,244.184616 143.471664,243.831284 144.667358,243.166504 
	C145.119858,243.142258 145.572342,243.118027 146.301041,243.533951 
	C146.884995,243.170197 147.468948,242.806458 148.715820,242.104813 
	C150.155701,241.781921 151.595566,241.459030 153.423477,241.599869 
	C154.969879,240.918365 156.516296,240.236862 158.722839,239.148544 
	C161.571136,238.275146 164.419449,237.401764 167.916412,236.808289 
	C168.631805,236.389359 169.347198,235.970428 170.681519,235.096985 
	C219.953690,216.923462 260.011169,186.400833 291.870728,144.054962 
	C299.266296,151.364624 306.376587,158.392319 313.655212,165.586380 
	C313.655212,135.763947 313.655212,106.243210 313.655212,77.891060 
	C302.572327,77.891060 291.792389,77.891060 281.098969,77.147972 
	C281.393158,75.434212 281.687347,73.720451 282.717621,71.989586 
	C287.725067,71.706955 286.534393,68.496574 285.677795,66.362808 
	C288.315369,65.556114 290.611755,64.853783 292.908142,64.151459 
	C292.851715,63.486237 292.795319,62.821018 292.738922,62.155800 
	C289.988678,61.560658 287.238464,60.965511 284.347748,60.339966 
	C284.074127,57.968971 283.808563,55.667946 283.542999,53.366920 
	C283.033600,53.344528 282.524170,53.322136 282.014771,53.299747 
	C281.433472,55.765480 280.852203,58.231213 280.170502,61.122932 
	C277.448334,58.838596 275.133240,56.895870 272.699097,54.853214 
	C269.947327,58.149258 271.492706,59.790260 273.620270,61.919842 
	C276.697601,65.000053 279.229034,68.625618 281.218597,72.026932 
	C279.730011,72.651390 278.282349,73.609024 276.740326,73.798454 
	C275.426178,73.959915 273.488861,73.655930 272.779724,72.783562 
	C272.127136,71.980812 272.668121,70.137680 272.822174,68.768486 
	C272.986481,67.308022 273.313629,65.865875 273.569702,64.415749 
	C272.040283,65.307777 270.262390,65.957001 269.069305,67.177734 
	C268.282013,67.983231 267.985077,69.637772 268.080322,70.864655 
	C268.335815,74.155212 267.002380,75.354996 263.791229,75.040573 
	C260.884369,74.755943 258.526093,75.566673 257.187286,79.205597 
	C253.790314,79.505859 250.393326,79.806129 246.084167,79.960960 
	C238.726303,80.397392 231.368439,80.833824 223.282410,81.080124 
	C222.797516,81.299568 222.312622,81.519005 221.827728,81.738441 
	C222.561584,82.463745 223.295425,83.189049 224.289536,84.534325 
	C226.832047,86.700096 229.374557,88.865860 232.121765,91.641411 
	C233.435776,92.693306 234.749786,93.745201 236.318695,95.414207 
	C238.162430,96.962372 240.006165,98.510529 242.086746,100.677597 
	C242.696426,101.774796 243.306107,102.871994 243.356750,104.268066 
	C242.095398,105.923012 240.834030,107.577957 238.756561,109.100784 
	C237.120636,108.382927 235.468994,107.698547 233.851990,106.940346 
	C230.323120,105.285683 225.153122,108.259537 225.110367,112.097626 
	C225.094742,113.501060 225.555389,114.909798 225.752792,116.050545 
	C221.874023,117.123314 218.356522,118.096161 213.844635,119.344032 
	C214.681290,119.603149 214.376694,119.484428 214.061249,119.415215 
	C212.435776,119.058540 210.807526,118.714569 209.180222,118.366165 
	C209.682144,119.968315 209.886597,121.757698 210.751297,123.131531 
	C212.293594,125.581924 214.234695,127.781296 215.267838,129.952408 
	C209.120270,127.323524 204.823822,128.374435 203.570694,133.262634 
	C203.039902,135.333191 203.877289,137.754456 203.389725,139.952225 
	C201.169876,138.056564 199.001556,136.094406 196.697021,134.307999 
	C196.052338,133.808258 195.006042,133.826569 194.143982,133.607254 
	C193.902695,134.619247 193.372711,135.667191 193.493118,136.634140 
	C193.643967,137.845291 195.061920,139.582901 194.667847,140.070129 
	C191.306976,144.225677 192.386581,148.487015 193.144913,152.931778 
	C189.336670,151.433990 185.528412,149.936218 181.614685,148.396957 
	C177.447845,150.448242 177.859985,153.304550 180.207413,156.772675 
	C181.150528,158.166077 181.406281,160.024704 181.613739,162.077881 
M102.191917,76.982925 
	C98.252701,75.804398 94.360802,74.936249 91.698502,78.412567 
	C89.069664,77.857033 86.862694,77.390656 84.655724,76.924271 
	C84.352470,77.473839 84.049217,78.023399 83.745956,78.572968 
	C88.112106,82.798477 92.395630,87.117180 96.937782,91.144165 
	C97.583221,91.716393 99.785469,91.296867 100.755211,90.611725 
	C105.999802,86.906342 105.030075,82.002533 103.634331,77.324524 
	C108.470284,81.353241 111.926620,80.956413 115.623116,75.772102 
	C116.145287,75.039764 115.970802,73.810707 116.118767,72.811562 
	C115.024086,72.999527 113.809883,72.951584 112.863037,73.431328 
	C111.479614,74.132294 110.288124,75.212059 109.014824,76.130363 
	C108.715385,75.781281 108.415955,75.432190 108.116516,75.083107 
	C108.869293,74.098900 109.600601,73.097298 110.380753,72.135292 
	C111.196030,71.129967 112.058296,70.162735 112.852058,69.234917 
	C108.992928,63.718357 104.172554,63.566338 101.836098,69.147240 
	C100.961464,71.236404 102.541069,74.353050 102.191917,76.982925 
M40.803890,312.001373 
	C42.567123,311.650024 44.524742,311.673615 46.057999,310.878693 
	C51.122578,308.252991 51.513878,305.020172 47.520557,301.014771 
	C44.936012,298.422394 42.428379,295.743591 39.709759,293.299927 
	C38.762829,292.448761 37.286526,292.186554 36.051991,291.655365 
	C36.057220,292.966827 35.982323,294.285187 36.094624,295.587433 
	C36.175335,296.523376 37.006355,297.769623 36.647678,298.310394 
	C33.078526,303.691711 35.076000,307.989594 38.252075,311.991852 
	C34.164829,310.286896 30.138590,308.410248 25.971596,306.929749 
	C22.449757,305.678528 20.350384,307.669403 21.649151,311.150146 
	C23.264433,315.479187 25.358461,319.643219 27.474068,323.761200 
	C27.938265,324.664734 29.364187,325.074188 30.347208,325.711212 
	C30.651535,324.603668 31.251879,323.483795 31.206249,322.390869 
	C31.051943,318.694855 33.365681,315.541046 36.411789,316.393097 
	C41.677299,317.865906 40.752213,315.036591 40.803890,312.001373 
M316.250641,190.017838 
	C309.980713,191.080383 311.709229,196.754547 310.453064,200.510101 
	C302.138092,201.703751 299.329132,203.625931 299.308258,207.988037 
	C299.290619,211.665100 302.617798,215.517151 306.213257,215.982315 
	C311.543304,216.671906 313.596039,214.411972 315.716248,205.505981 
	C317.630402,205.085419 319.851593,205.128983 321.376526,204.120132 
	C323.066986,203.001755 324.121368,200.921860 325.452728,199.260651 
	C323.742371,199.411453 322.027679,199.716202 320.322968,199.667725 
	C318.766693,199.623489 316.667084,199.696640 315.843109,198.783279 
	C315.160736,198.026871 315.804871,195.857224 316.204285,194.408249 
	C316.537872,193.198166 317.368469,192.125092 318.678467,191.063141 
	C321.826721,193.360519 324.974976,195.657898 328.976898,198.578247 
	C329.319519,195.993073 329.550537,194.250031 329.719116,192.978271 
	C331.919678,191.811142 333.959412,190.729324 335.999115,189.647507 
	C333.221191,187.843185 330.493744,187.888535 328.896240,186.567490 
	C327.314056,185.259109 326.871399,182.572754 325.406525,179.336853 
	C324.497772,182.392578 323.867645,184.511429 323.237518,186.630264 
	C322.582794,187.182571 321.928040,187.734879 321.273315,188.287186 
	C320.211487,186.389908 319.308319,184.372665 318.009369,182.654678 
	C317.493103,181.971848 316.099915,181.952042 315.105957,181.630386 
	C314.941895,182.817291 314.401825,184.110092 314.699524,185.166931 
	C315.178253,186.866562 316.210297,188.410324 316.250641,190.017838 
M94.852821,176.977173 
	C96.854904,176.698608 98.856987,176.420044 101.374039,176.397522 
	C101.909012,176.232437 102.443985,176.067368 103.821053,175.941818 
	C127.700439,172.756912 149.919998,164.765610 170.862671,152.973251 
	C173.654999,151.400986 174.775620,149.606262 174.748062,146.297012 
	C174.581665,126.320923 174.673615,106.342735 174.651703,86.365280 
	C174.650375,85.145912 174.414230,83.926804 174.239899,82.251747 
	C154.068634,90.600166 134.385498,98.666069 114.825363,107.019958 
	C113.496010,107.587715 112.387077,110.311409 112.366142,112.046783 
	C112.177383,127.693550 112.253418,143.343521 112.254570,158.992554 
	C112.255287,168.709564 112.257599,168.710159 102.703117,170.859756 
	C102.378914,170.932709 102.047951,170.986282 101.717186,171.017776 
	C87.490189,172.372589 73.262871,173.723862 58.789539,174.815140 
	C54.976955,174.815140 51.164371,174.815140 47.351788,174.815140 
	C47.340317,175.466492 47.328846,176.117844 47.317375,176.769196 
	C51.912426,176.968704 56.507477,177.168228 61.999603,177.600037 
	C71.618523,177.449066 81.237450,177.298111 91.453461,177.425354 
	C92.295868,177.254120 93.138283,177.082870 94.852821,176.977173 
M137.939453,365.742157 
	C137.274017,366.271942 136.311356,367.401154 135.988129,367.240845 
	C131.690842,365.110016 132.535309,367.303070 132.482864,370.442444 
	C132.397797,375.532898 137.245514,375.087280 139.345825,377.624878 
	C140.631104,379.177704 143.748947,381.086304 144.813782,380.520477 
	C146.509888,379.619141 147.180084,376.787201 148.986359,374.859344 
	C210.904800,414.089935 273.126892,373.550415 283.884979,328.630463 
	C264.665009,321.913055 245.415527,315.185364 226.215714,308.475006 
	C225.673782,309.370819 225.356461,309.762146 225.178467,310.209015 
	C219.825302,323.648071 208.368408,330.450653 195.360336,327.898743 
	C182.631882,325.401703 174.696625,314.932312 174.674423,300.567627 
	C174.656921,289.240875 174.823318,277.910675 174.576950,266.589233 
	C174.498215,262.971497 175.684937,261.205811 178.805527,259.264709 
	C194.899628,249.253601 210.882401,239.045517 226.589645,228.440552 
	C231.983612,224.798767 236.467255,219.808685 241.366776,215.434570 
	C240.308426,214.710403 239.830185,214.686996 239.496078,214.895050 
	C236.238571,216.923294 233.012390,219.001755 229.763748,221.044342 
	C196.070160,242.229446 159.544952,255.884583 120.273346,262.265564 
	C112.245880,263.569885 112.142509,263.645599 112.283272,271.966400 
	C112.530991,286.609955 112.000282,301.347809 113.505104,315.868988 
	C115.489914,335.022003 125.020767,351.040497 137.939453,365.742157 
M251.304016,246.338043 
	C255.309525,250.481613 259.209412,254.738251 263.415558,258.667023 
	C264.194946,259.394989 266.537292,259.351990 267.597229,258.721558 
	C272.259430,255.948410 272.832489,251.537201 271.298370,246.615982 
	C279.023499,247.440918 281.500885,246.637863 283.073730,242.658234 
	C283.413208,241.799286 282.964172,240.628693 282.878326,239.601624 
	C282.004578,239.823227 281.027069,239.868103 280.280670,240.306519 
	C279.066284,241.019836 278.003082,241.990509 276.876068,242.852554 
	C276.941101,240.903961 277.690613,239.851578 278.580414,238.935471 
	C280.951538,236.494232 279.872589,234.635147 277.444122,233.395493 
	C273.256958,231.258057 269.314392,233.650177 268.991425,238.316788 
	C268.892181,239.751434 268.746796,241.182892 268.616852,242.681107 
	C266.382019,242.893463 264.502167,242.804764 262.797913,243.309250 
	C261.098053,243.812454 259.574188,244.910172 257.828735,245.822708 
	C255.738785,244.661148 253.547623,241.085754 251.304016,246.338043 
M76.573494,264.812744 
	C74.408333,265.063934 70.981735,264.582275 70.326317,265.710541 
	C68.686859,268.532654 68.304306,272.084961 67.588715,274.714844 
	C64.233841,275.370026 60.551140,276.089203 56.868443,276.808380 
	C56.566711,277.542450 56.154270,277.258057 55.697983,277.130249 
	C54.344669,276.751312 52.974072,276.434082 51.610233,276.092743 
	C52.029640,277.517609 52.055946,279.284729 52.942471,280.302856 
	C55.558468,283.307159 58.470341,286.061432 61.349888,288.826660 
	C64.642838,291.988892 67.829849,291.615234 69.551704,287.404205 
	C70.667564,284.675262 70.642014,281.479553 71.173653,278.211853 
	C75.579987,279.782074 79.761223,279.110291 82.459740,274.600067 
	C82.909393,273.848511 82.008987,272.289246 81.678322,270.871155 
	C79.502510,272.129883 78.100235,272.941101 76.697968,273.752350 
	C77.297104,270.548218 81.436798,268.299805 76.573494,264.812744 
M251.442322,254.796082 
	C245.515350,256.713898 245.459106,261.257324 246.115570,266.828674 
	C243.728775,265.125305 242.221619,262.930634 240.407349,261.028992 
	C239.652634,260.237915 238.242844,260.071777 237.130936,259.621490 
	C236.955658,260.807465 236.701630,261.988190 236.622467,263.180542 
	C236.483063,265.280457 236.282913,267.397980 236.414764,269.488831 
	C236.586334,272.209534 236.177765,275.641113 237.648972,277.413849 
	C239.088745,279.148651 242.575745,279.752716 245.163559,279.751343 
	C246.694229,279.750519 248.885269,277.915192 249.591537,276.363983 
	C250.540527,274.279694 250.342636,271.673218 250.643448,269.239044 
	C257.868134,269.955658 260.936493,267.976074 261.004242,262.205353 
	C261.068481,256.731873 257.962708,254.018097 251.442322,254.796082 
M280.997131,408.370850 
	C280.826996,406.788452 280.656891,405.206055 280.601196,404.687897 
	C283.967957,403.600922 286.977905,402.886932 289.717072,401.597626 
	C290.613678,401.175598 290.806488,399.258301 291.321136,398.024780 
	C290.176788,398.157288 289.015320,398.480743 287.891846,398.380157 
	C285.918823,398.203430 283.850769,398.028137 282.101990,397.235596 
	C281.717896,397.061523 282.523895,394.308929 282.743408,392.738403 
	C282.881592,391.749756 282.948273,390.751099 283.047028,389.756927 
	C282.052032,389.987518 280.434448,389.925690 280.165894,390.497498 
	C278.724365,393.566589 277.618683,396.793427 276.390564,399.982544 
	C274.595398,400.291138 271.133850,399.882477 269.563110,401.413574 
	C267.656189,403.272491 266.036743,407.151398 266.710052,409.447571 
	C267.384979,411.749207 270.801056,414.098328 273.438843,414.773438 
	C277.388763,415.784424 279.662262,412.687744 280.997131,408.370850 
M149.798187,23.519859 
	C142.124008,23.185051 144.875122,29.666569 143.599869,33.312618 
	C134.831818,35.114056 131.024796,37.615925 132.418747,41.603020 
	C133.440613,44.525791 136.613434,47.731190 139.532440,48.711227 
	C143.808884,50.147018 146.011475,46.653961 147.540833,37.707687 
	C154.593887,38.217247 157.416153,36.362991 157.220078,31.816681 
	C154.321472,31.816681 151.452560,31.816681 148.583649,31.816681 
	C149.160797,29.214138 149.737946,26.611593 149.798187,23.519859 
M229.134094,293.436890 
	C231.705917,294.318085 232.803192,293.771576 232.439499,290.719849 
	C231.880417,286.028534 233.261108,285.007538 237.933746,285.366455 
	C239.258591,285.468201 240.678619,284.330597 242.054993,283.761353 
	C237.060349,280.043030 232.579163,277.539062 227.859314,275.622955 
	C226.354233,275.011932 224.033432,275.604675 222.471207,276.401764 
	C221.963394,276.660889 222.321014,279.472809 222.904999,280.854034 
	C224.636963,284.950256 226.679001,288.915344 229.134094,293.436890 
M55.017796,109.515297 
	C57.301811,115.712303 59.585823,121.909302 61.869839,128.106308 
	C62.471565,127.978935 63.073288,127.851562 63.675014,127.724190 
	C64.504105,124.906425 64.556213,121.314995 66.377846,119.485512 
	C68.250580,117.604721 71.850441,117.443657 74.694519,116.530045 
	C74.789131,116.116394 74.883743,115.702744 74.978363,115.289093 
	C69.599014,112.682404 64.262634,109.977470 58.789967,107.584152 
	C58.043800,107.257835 56.617062,108.487778 55.017796,109.515297 
M81.502342,110.004333 
	C82.126930,108.015907 83.904579,105.108673 83.178032,104.196892 
	C79.899414,100.082367 75.972855,96.467621 72.113197,92.850533 
	C71.537086,92.310623 70.074829,92.716293 69.022522,92.684525 
	C69.073822,93.676575 68.727524,95.054169 69.248177,95.591095 
	C71.085121,97.485489 71.028549,98.958824 69.609528,101.219833 
	C67.532639,104.529053 67.106094,108.319641 70.682449,110.991653 
	C74.015923,113.482201 77.678284,113.863289 81.502342,110.004333 
M285.524567,383.017212 
	C283.939148,382.322693 282.353699,381.628143 280.768280,380.933594 
	C281.315308,382.591766 281.434509,384.622040 282.491180,385.836945 
	C285.424316,389.209290 288.692780,392.300720 291.960663,395.362427 
	C292.650146,396.008392 293.902069,396.054047 294.894836,396.376282 
	C295.024780,395.207977 295.299561,394.030975 295.230438,392.874573 
	C295.188782,392.177979 294.611877,391.513367 294.594574,391.478424 
	C297.696503,390.583160 300.616211,389.740479 303.535889,388.897797 
	C303.534180,388.306610 303.532440,387.715424 303.530701,387.124237 
	C297.500366,387.125397 292.170837,386.345459 294.047729,377.533508 
	C293.386536,377.727661 292.725342,377.921814 292.064117,378.115967 
	C291.081451,380.560120 290.098755,383.004272 288.973785,385.802277 
	C287.994171,385.043762 287.014008,384.284851 285.524567,383.017212 
M151.448425,15.949339 
	C149.905563,15.590133 148.362686,15.230927 146.819824,14.871721 
	C147.353302,16.224321 147.603455,17.805431 148.474655,18.885643 
	C150.856903,21.839392 153.300674,24.807785 156.125641,27.313053 
	C157.534973,28.562881 159.831223,28.812618 161.726288,29.514721 
	C161.726288,27.806320 161.726288,26.097918 161.726288,24.163975 
	C163.115295,24.102642 164.501022,24.293095 165.706757,23.912817 
	C166.773422,23.576408 167.639679,22.604553 168.594406,21.913239 
	C167.578339,21.280937 166.632965,20.342196 165.529739,20.087694 
	C163.847702,19.699663 162.056458,19.784967 160.348846,19.671753 
	C160.062561,16.859497 159.837845,14.652075 159.613129,12.444652 
	C158.999710,12.342933 158.386292,12.241215 157.772873,12.139496 
	C157.101257,14.580146 156.429657,17.020796 155.655487,19.834148 
	C154.532532,18.808475 153.246933,17.634247 151.448425,15.949339 
M139.834030,381.954681 
	C136.613495,374.823669 131.064697,379.778625 124.944389,379.763489 
	C126.878578,377.644958 128.044861,376.579071 128.929626,375.316040 
	C129.430023,374.601715 129.752014,373.515625 129.612793,372.688049 
	C129.522049,372.148560 128.047714,371.272552 127.892845,371.399689 
	C126.000916,372.952637 123.647438,374.372437 122.635056,376.428192 
	C121.863739,377.994476 122.123566,381.050629 123.223984,382.294403 
	C124.449402,383.679535 127.125572,384.192566 129.207840,384.291199 
	C131.239441,384.387482 133.318512,383.481445 135.376755,383.015411 
	C135.549744,383.430359 135.722733,383.845276 135.895721,384.260223 
	C134.831894,385.439880 133.601212,386.513489 132.761154,387.835358 
	C132.172653,388.761414 132.117416,390.026306 131.824020,391.139893 
	C133.127975,391.006378 135.114563,391.355621 135.612274,390.651855 
	C137.340866,388.207794 138.552673,385.398224 139.834030,381.954681 
M291.391083,233.949203 
	C292.119141,233.593124 293.198029,233.428802 293.515320,232.848236 
	C295.002014,230.128021 297.867188,226.891785 297.284576,224.586929 
	C296.227631,220.405624 292.105286,220.353638 288.198944,221.710983 
	C287.060822,222.106476 285.629120,221.657104 283.411896,221.550934 
	C285.171875,219.533722 286.516510,218.559525 286.962708,217.273560 
	C287.241058,216.471466 286.162933,215.198654 285.693542,214.137070 
	C284.037781,215.397949 281.603119,216.340668 280.925018,218.000870 
	C280.092255,220.039627 280.224030,222.846817 280.942841,224.984161 
	C281.293182,226.025772 283.937347,226.839233 285.516998,226.796143 
	C287.858612,226.732285 290.176971,225.815323 292.505219,225.261505 
	C292.751129,225.599411 292.997040,225.937317 293.242920,226.275223 
	C292.107086,227.689499 291.168121,229.345673 289.792480,230.465393 
	C287.280273,232.510284 288.340576,233.307129 291.391083,233.949203 
M114.321297,58.541706 
	C118.112518,58.541706 121.903740,58.541706 125.694962,58.541706 
	C125.892670,58.902657 126.090385,59.263607 126.288094,59.624557 
	C124.548637,61.267208 122.809189,62.909863 120.181244,65.391556 
	C121.170517,65.897667 122.404236,66.944939 122.837021,66.680649 
	C125.129044,65.280945 127.842926,63.938343 129.167480,61.804359 
	C130.095596,60.309082 129.809113,56.890133 128.651108,55.581615 
	C127.357948,54.120392 124.487648,53.656178 122.263580,53.542210 
	C120.446159,53.449081 118.569672,54.508820 116.719368,55.057426 
	C116.515083,54.623959 116.310806,54.190487 116.106522,53.757019 
	C117.668510,52.052254 119.230507,50.347488 120.936516,48.485538 
	C117.418869,45.744316 115.347397,48.187923 113.533775,50.096317 
	C111.153137,52.601349 111.230301,55.431671 114.321297,58.541706 
M93.130066,98.292038 
	C94.865219,94.519623 94.745811,90.742485 90.889229,88.785736 
	C88.579842,87.613998 84.936531,87.186096 82.685455,88.194084 
	C78.550545,90.045631 77.853752,94.624184 80.301140,97.779823 
	C84.463264,103.146423 87.816635,103.447716 93.130066,98.292038 
M49.320023,286.453156 
	C48.587986,287.114471 47.245876,287.759705 47.227940,288.439850 
	C47.143520,291.641144 46.598087,295.205170 47.782330,297.969177 
	C49.229588,301.347015 52.814518,301.867706 56.305969,300.308167 
	C60.054020,298.634003 60.319027,295.296112 59.928936,291.928528 
	C59.470516,287.971161 55.724682,285.901733 49.320023,286.453156 
M131.026230,47.489513 
	C130.742950,45.839878 130.459671,44.190243 130.235641,42.885712 
	C127.699265,42.352955 125.570206,41.905754 123.132187,41.393658 
	C122.829849,42.170830 122.110298,43.093834 122.239441,43.876869 
	C122.529434,45.635155 122.715958,47.967152 123.881104,48.917900 
	C127.106178,51.549522 130.691223,53.841213 134.432999,55.648045 
	C135.132614,55.985874 137.219818,53.450142 138.666656,52.240509 
	C137.596268,51.720722 136.481247,51.274963 135.466461,50.662979 
	C134.106415,49.842781 132.823929,48.893951 131.026230,47.489513 
M295.873108,218.397873 
	C296.932007,219.446671 297.923706,220.575729 299.062561,221.529053 
	C302.325287,224.260345 304.661530,223.205093 305.584473,218.374908 
	C300.504852,218.281006 297.700012,215.657791 297.632416,210.219513 
	C294.715210,209.929214 292.086151,209.667587 289.457062,209.405960 
	C289.113708,210.149078 288.770355,210.892181 288.427002,211.635300 
	C290.722443,213.720856 293.017883,215.806427 295.873108,218.397873 
z"/>
<path fill="#0D0D0D" opacity="1.000000" stroke="none" 
	d="
M105.428452,417.000000 
	C102.133804,413.634705 99.162727,410.350769 96.456665,406.861298 
	C95.470840,405.590057 95.116020,403.829468 94.473282,402.292145 
	C95.954445,402.624481 97.427650,403.000336 98.919716,403.273071 
	C99.833420,403.440063 100.895790,403.767578 101.684128,403.471375 
	C104.510590,402.409393 107.248718,401.112366 110.778793,399.573517 
	C111.415276,396.673553 109.786476,391.039307 116.079536,390.606964 
	C118.339279,390.451691 120.704155,391.826538 123.957123,392.776398 
	C121.396835,395.895050 119.774246,397.871521 118.151649,399.847992 
	C118.444977,400.263489 118.738304,400.678955 119.031631,401.094452 
	C120.752449,399.930573 122.473267,398.766693 124.827942,397.174103 
	C125.124092,398.259735 125.930695,400.061035 125.625275,400.274994 
	C122.435028,402.509949 119.066383,404.490234 115.747162,406.541077 
	C115.555420,406.164825 115.363678,405.788544 115.171936,405.412262 
	C113.808182,409.029968 112.444420,412.647675 111.040329,416.632690 
	C109.285645,417.000000 107.571281,417.000000 105.428452,417.000000 
M105.138512,405.572205 
	C102.561363,408.667847 105.537643,409.890289 107.259094,411.364563 
	C107.571419,411.632019 108.813019,410.814423 109.625626,410.497772 
	C108.837967,408.746277 108.089989,406.974274 107.210358,405.270264 
	C107.105362,405.066833 106.283577,405.233429 105.138512,405.572205 
z"/>
<path fill="#0D0D0D" opacity="1.000000" stroke="none" 
	d="
M257.454102,417.000000 
	C257.000458,416.502625 257.027252,416.003632 256.997406,415.508087 
	C256.589478,408.735687 256.587555,408.735809 263.586761,408.587433 
	C264.732025,411.231323 265.831116,413.768555 266.965088,416.652893 
	C263.969391,417.000000 260.938812,417.000000 257.454102,417.000000 
z"/>
<path fill="#0D0D0D" opacity="1.000000" stroke="none" 
	d="
M1.000000,174.464645 
	C3.500318,177.684601 7.139826,178.832336 11.705452,177.950577 
	C10.588292,183.531998 6.237857,181.204727 3.432993,182.501068 
	C3.356576,184.430145 6.997143,187.772049 1.366665,187.996597 
	C1.000000,183.643097 1.000000,179.286194 1.000000,174.464645 
z"/>
<path fill="#0D0D0D" opacity="1.000000" stroke="none" 
	d="
M90.463181,417.000000 
	C92.368050,410.345123 96.819870,410.127808 102.849121,416.690063 
	C98.975456,417.000000 94.950912,417.000000 90.463181,417.000000 
z"/>
<path fill="#0E0E0E" opacity="1.000000" stroke="none" 
	d="
M347.555847,0.999999 
	C347.268890,4.231760 346.537781,7.463522 345.806702,10.695285 
	C345.391235,10.815808 344.975800,10.936331 344.560333,11.056853 
	C343.063477,7.944808 341.566589,4.832762 340.034851,1.360358 
	C342.370575,1.000000 344.741119,1.000000 347.555847,0.999999 
z"/>
<path fill="#0E0E0E" opacity="1.000000" stroke="none" 
	d="
M350.000000,326.541931 
	C344.988342,320.609894 344.891876,319.137817 349.641968,316.038025 
	C350.000000,319.361298 350.000000,322.722565 350.000000,326.541931 
z"/>
<path fill="#0D0D0D" opacity="1.000000" stroke="none" 
	d="
M0.999999,170.250000 
	C1.111249,170.274445 1.222499,170.548904 1.166874,170.911682 
	C1.000000,171.000000 1.000000,170.500000 0.999999,170.250000 
z"/>
<path fill="#FDFDFD" opacity="1.000000" stroke="none" 
	d="
M153.035446,241.136139 
	C151.595566,241.459030 150.155701,241.781921 148.105042,242.205627 
	C147.004440,242.568878 146.514633,242.831329 146.024841,243.093781 
	C145.572342,243.118027 145.119858,243.142258 144.085083,243.252823 
	C143.010895,243.593811 142.518997,243.848495 142.027100,244.103165 
	C141.574203,244.125565 141.121292,244.147964 140.086594,244.256897 
	C139.009888,244.587524 138.514984,244.831650 138.020081,245.075775 
	C137.569473,245.090546 137.118851,245.105331 136.080933,245.194977 
	C134.997009,245.517853 134.500381,245.765823 134.003769,246.013794 
	C133.252884,246.071609 132.502014,246.129425 131.129974,246.265503 
	C130.010849,246.581161 129.512878,246.818573 129.014923,247.055984 
	C128.261429,247.102020 127.507919,247.148056 126.133316,247.267792 
	C125.009308,247.565338 124.506401,247.789139 124.003494,248.012970 
	C122.931389,248.097382 121.859283,248.181793 120.164474,248.355957 
	C119.031898,248.645645 118.522018,248.845612 118.012146,249.045563 
	C116.943115,249.107910 115.874092,249.170242 114.165741,249.291855 
	C113.015053,249.558136 112.503700,249.765167 111.992355,249.972198 
	C110.276451,250.087967 108.560539,250.203720 106.055573,250.430893 
	C96.169441,251.331161 87.072380,252.120041 77.975319,252.908920 
	C62.420109,252.272461 46.864899,251.636002 31.225006,250.996094 
	C28.088423,228.720322 25.127216,207.690063 22.036329,185.738831 
	C77.833191,197.383484 130.883286,192.435684 180.795502,163.196777 
	C181.847107,162.839706 182.371841,162.286331 183.074432,161.453674 
	C187.133026,158.704651 191.013748,156.234894 195.090103,154.075241 
	C196.898529,154.980118 198.511322,155.574890 200.901596,156.456390 
	C199.542450,154.043762 198.779861,152.690079 198.211594,151.052399 
	C200.593582,149.175079 202.781235,147.581772 205.401978,145.998322 
	C207.446823,145.577637 209.058594,145.147095 210.670349,144.716553 
	C210.115509,144.017502 209.560684,143.318436 209.171616,142.316467 
	C210.279755,141.032776 211.222122,140.052002 212.432037,138.999619 
	C213.177536,138.383606 213.655502,137.839188 214.411530,137.229309 
	C215.297729,136.717789 215.905899,136.271759 216.893311,135.890152 
	C222.655945,138.010406 221.797195,134.862610 220.846069,131.470490 
	C220.831299,131.290848 220.773315,130.935043 221.049591,130.825516 
	C221.520889,130.384018 221.715912,130.052032 222.188904,129.635330 
	C222.951553,128.959076 223.436234,128.367538 224.212616,127.694092 
	C225.333694,126.742126 226.163071,125.872101 227.359528,125.015030 
	C229.578400,124.700974 231.430176,124.373962 233.281967,124.046951 
	C232.553467,122.925201 231.824982,121.803444 231.216827,120.340096 
	C234.082336,116.409973 236.827499,112.821442 239.572662,109.232903 
	C240.834030,107.577957 242.095398,105.923012 244.015091,104.131699 
	C246.115250,103.662796 247.557053,103.330254 249.055695,103.343536 
	C252.602448,105.202080 253.621780,104.223671 254.372482,98.989502 
	C255.493805,97.989128 256.244476,96.995590 257.392914,95.999825 
	C260.960236,96.347679 261.148590,94.307579 260.998779,91.622025 
	C260.998352,90.498863 260.997955,89.750015 261.368652,89.005753 
	C267.898834,90.232544 270.549927,87.939308 271.334290,81.144165 
	C275.010315,82.591652 277.557343,81.873917 279.345154,78.289642 
	C280.120300,78.087212 280.566376,77.989136 281.012482,77.891068 
	C291.792389,77.891060 302.572327,77.891060 313.655212,77.891060 
	C313.655212,106.243210 313.655212,135.763947 313.655212,165.586380 
	C306.376587,158.392319 299.266296,151.364624 291.870728,144.054962 
	C260.011169,186.400833 219.953690,216.923462 170.066055,235.271912 
	C168.722977,235.807358 167.995361,236.167877 167.267761,236.528381 
	C164.419449,237.401764 161.571136,238.275146 158.055756,239.304459 
	C155.937592,240.018967 154.486526,240.577560 153.035446,241.136139 
M111.985748,221.756134 
	C113.597336,222.187271 115.208923,222.618408 116.761223,223.033691 
	C116.487022,226.296310 111.670616,229.084015 116.162094,231.097244 
	C118.105721,231.968430 121.385040,229.859650 124.057625,229.104507 
	C124.346916,228.241043 124.636208,227.377579 124.925499,226.514114 
	C123.348747,225.574295 121.645470,224.791992 120.228165,223.653656 
	C118.562447,222.315781 117.279953,220.492554 115.588257,219.197159 
	C113.045082,217.249756 111.336975,217.647446 111.985748,221.756134 
M109.933395,230.590378 
	C108.627541,229.962296 107.321693,229.334198 106.015846,228.706100 
	C105.973198,229.567108 105.554619,230.736969 105.959763,231.230072 
	C107.087303,232.602463 108.551758,234.200119 109.933395,230.590378 
M191.644180,162.856293 
	C194.805527,161.705170 194.076660,160.049545 193.409775,158.401962 
	C192.758179,158.306320 192.106583,158.210663 191.454987,158.115021 
	C191.284836,159.654083 191.114685,161.193130 191.644180,162.856293 
z"/>
<path fill="#FCFCFC" opacity="1.000000" stroke="none" 
	d="
M137.979614,365.053467 
	C125.020767,351.040497 115.489914,335.022003 113.505104,315.868988 
	C112.000282,301.347809 112.530991,286.609955 112.283272,271.966400 
	C112.142509,263.645599 112.245880,263.569885 120.273346,262.265564 
	C159.544952,255.884583 196.070160,242.229446 229.763748,221.044342 
	C233.012390,219.001755 236.238571,216.923294 239.496078,214.895050 
	C239.830185,214.686996 240.308426,214.710403 241.366776,215.434570 
	C236.467255,219.808685 231.983612,224.798767 226.589645,228.440552 
	C210.882401,239.045517 194.899628,249.253601 178.805527,259.264709 
	C175.684937,261.205811 174.498215,262.971497 174.576950,266.589233 
	C174.823318,277.910675 174.656921,289.240875 174.674423,300.567627 
	C174.696625,314.932312 182.631882,325.401703 195.360336,327.898743 
	C208.368408,330.450653 219.825302,323.648071 225.178467,310.209015 
	C225.356461,309.762146 225.673782,309.370819 226.215714,308.475006 
	C245.415527,315.185364 264.665009,321.913055 283.884979,328.630463 
	C273.126892,373.550415 210.904800,414.089935 148.629791,374.843567 
	C148.273224,374.827759 148.287033,374.776611 148.162476,374.454590 
	C145.789169,372.158325 143.540436,370.184082 141.204651,367.928894 
	C140.071609,366.783142 139.025604,365.918304 137.979614,365.053467 
M164.487732,350.987854 
	C163.332336,349.996460 162.176941,349.005066 160.989761,347.986389 
	C159.880157,349.836975 158.773270,351.013214 158.470154,352.369080 
	C158.139191,353.849548 157.928207,356.115692 158.759399,356.953461 
	C161.158661,359.371613 163.009079,357.039215 165.079605,355.647919 
	C167.598999,353.955048 166.398773,352.827972 164.487732,350.987854 
z"/>
<path fill="#FAFAFA" opacity="1.000000" stroke="none" 
	d="
M100.859070,176.141479 
	C98.856987,176.420044 96.854904,176.698608 94.253632,176.726166 
	C92.721748,176.699158 91.789055,176.923157 90.856369,177.147156 
	C81.237450,177.298111 71.618523,177.449066 61.004868,176.937424 
	C59.685287,175.875076 59.360439,175.475327 59.035587,175.075592 
	C73.262871,173.723862 87.490189,172.372589 101.717186,171.017776 
	C102.047951,170.986282 102.378914,170.932709 102.703117,170.859756 
	C112.257599,168.710159 112.255287,168.709564 112.254570,158.992554 
	C112.253418,143.343521 112.177383,127.693550 112.366142,112.046783 
	C112.387077,110.311409 113.496010,107.587715 114.825363,107.019958 
	C134.385498,98.666069 154.068634,90.600166 174.239899,82.251747 
	C174.414230,83.926804 174.650375,85.145912 174.651703,86.365280 
	C174.673615,106.342735 174.581665,126.320923 174.748062,146.297012 
	C174.775620,149.606262 173.654999,151.400986 170.862671,152.973251 
	C149.919998,164.765610 127.700439,172.756912 103.273956,175.727875 
	C102.104263,175.723129 101.481667,175.932297 100.859070,176.141479 
z"/>
<path fill="#FEFEFE" opacity="1.000000" stroke="none" 
	d="
M254.001831,98.996338 
	C253.621780,104.223671 252.602448,105.202080 249.201752,103.008987 
	C250.437454,100.012093 249.853378,98.813911 247.146240,99.156197 
	C245.371124,99.380646 243.614685,99.752724 241.849884,100.058685 
	C240.006165,98.510529 238.162430,96.962372 236.180969,94.717804 
	C236.237061,90.859146 234.132431,90.868965 231.917068,91.031631 
	C229.374557,88.865860 226.832047,86.700096 224.161514,83.893799 
	C224.025848,82.592262 224.018219,81.931259 224.010574,81.270256 
	C231.368439,80.833824 238.726303,80.397392 246.611465,80.387390 
	C248.670380,81.546799 250.292389,82.140305 251.705597,83.056015 
	C252.877533,83.815376 254.741531,85.016853 254.681717,85.914734 
	C254.362534,90.705460 257.631500,91.305733 260.998779,91.996338 
	C261.148590,94.307579 260.960236,96.347679 257.087891,95.848740 
	C252.058929,92.070076 247.732773,88.440285 243.406631,84.810486 
	C246.671829,89.325478 243.901108,91.995987 240.174973,94.949173 
	C242.598969,95.364418 244.575287,94.963013 246.569534,94.694603 
	C250.126846,94.215828 253.667160,93.865280 254.001831,98.996338 
z"/>
<path fill="#0D0D0D" opacity="1.000000" stroke="none" 
	d="
M251.305298,245.994995 
	C253.547623,241.085754 255.738785,244.661148 257.828735,245.822708 
	C259.574188,244.910172 261.098053,243.812454 262.797913,243.309250 
	C264.502167,242.804764 266.382019,242.893463 268.616852,242.681107 
	C268.746796,241.182892 268.892181,239.751434 268.991425,238.316788 
	C269.314392,233.650177 273.256958,231.258057 277.444122,233.395493 
	C279.872589,234.635147 280.951538,236.494232 278.580414,238.935471 
	C277.690613,239.851578 276.941101,240.903961 276.876068,242.852554 
	C278.003082,241.990509 279.066284,241.019836 280.280670,240.306519 
	C281.027069,239.868103 282.004578,239.823227 282.878357,239.601624 
	C282.964172,240.628693 283.413208,241.799286 283.073730,242.658234 
	C281.500885,246.637863 279.023499,247.440918 271.298370,246.615982 
	C272.832489,251.537201 272.259430,255.948410 267.597229,258.721558 
	C266.537292,259.351990 264.194946,259.394989 263.415558,258.667023 
	C259.209412,254.738251 255.309525,250.481613 251.305298,245.994995 
M262.517212,248.192780 
	C261.766632,252.088440 264.142883,253.177689 267.559448,253.937897 
	C268.166107,249.910049 267.020294,247.736816 262.517212,248.192780 
z"/>
<path fill="#0D0D0D" opacity="1.000000" stroke="none" 
	d="
M76.920654,264.982117 
	C81.436798,268.299805 77.297104,270.548218 76.697968,273.752350 
	C78.100235,272.941101 79.502510,272.129883 81.678322,270.871155 
	C82.008987,272.289246 82.909393,273.848511 82.459740,274.600067 
	C79.761223,279.110291 75.579987,279.782074 71.173653,278.211853 
	C70.642014,281.479553 70.667564,284.675262 69.551704,287.404205 
	C67.829849,291.615234 64.642838,291.988892 61.349888,288.826660 
	C58.470341,286.061432 55.558468,283.307159 52.942471,280.302856 
	C52.055946,279.284729 52.029640,277.517609 51.610233,276.092743 
	C52.974072,276.434082 54.344669,276.751312 55.697983,277.130249 
	C56.154270,277.258057 56.566711,277.542450 56.868443,276.808380 
	C60.551140,276.089203 64.233841,275.370026 67.588715,274.714844 
	C68.304306,272.084961 68.686859,268.532654 70.326317,265.710541 
	C70.981735,264.582275 74.408333,265.063934 76.920654,264.982117 
M66.538223,284.707123 
	C65.991829,282.992920 65.592453,281.204132 64.789284,279.620178 
	C64.602859,279.252533 62.791706,279.242462 62.179989,279.688110 
	C61.569798,280.132599 61.052341,281.924805 61.313999,282.142944 
	C62.759403,283.348053 64.455383,284.252655 66.538223,284.707123 
z"/>
<path fill="#0E0E0E" opacity="1.000000" stroke="none" 
	d="
M251.788498,254.625671 
	C257.962708,254.018097 261.068481,256.731873 261.004242,262.205353 
	C260.936493,267.976074 257.868134,269.955658 250.643448,269.239044 
	C250.342636,271.673218 250.540527,274.279694 249.591537,276.363983 
	C248.885269,277.915192 246.694229,279.750519 245.163559,279.751343 
	C242.575745,279.752716 239.088745,279.148651 237.648972,277.413849 
	C236.177765,275.641113 236.586334,272.209534 236.414764,269.488831 
	C236.282913,267.397980 236.483063,265.280457 236.622467,263.180542 
	C236.701630,261.988190 236.955658,260.807465 237.130936,259.621490 
	C238.242844,260.071777 239.652634,260.237915 240.407349,261.028992 
	C242.221619,262.930634 243.728775,265.125305 246.115570,266.828674 
	C245.459106,261.257324 245.515350,256.713898 251.788498,254.625671 
M252.071945,258.494141 
	C249.298050,259.742249 249.663437,261.590881 251.646545,262.984070 
	C252.838501,263.821472 254.670670,263.747620 256.215118,264.083282 
	C255.953979,262.429840 255.901031,260.697845 255.322266,259.164276 
	C255.110992,258.604462 253.649719,258.516449 252.071945,258.494141 
M245.062180,275.735718 
	C244.222931,273.640167 243.383682,271.544647 242.544434,269.449097 
	C241.741058,270.032806 240.937683,270.616486 240.134308,271.200195 
	C241.534866,272.774689 242.935425,274.349213 245.062180,275.735718 
z"/>
<path fill="#101010" opacity="1.000000" stroke="none" 
	d="
M239.164612,109.166840 
	C236.827499,112.821442 234.082336,116.409973 230.945221,120.479767 
	C229.055801,121.972557 227.558350,122.984093 225.703247,123.958084 
	C224.790680,123.616142 224.252472,123.274704 223.677307,123.015137 
	C222.532394,122.498482 221.367157,122.026833 220.210327,121.536591 
	C220.113647,122.970970 219.719849,124.467529 220.003342,125.822357 
	C220.290482,127.194557 221.247391,128.426620 221.910919,129.720062 
	C221.715912,130.052032 221.520889,130.384018 220.707565,130.831207 
	C219.405472,130.964279 218.721680,130.982132 217.754288,130.998230 
	C217.281631,131.000519 217.092606,131.004578 216.706680,130.905426 
	C216.265854,130.617172 216.098938,130.378296 216.009033,130.085632 
	C214.234695,127.781296 212.293594,125.581924 210.751297,123.131531 
	C209.886597,121.757698 209.682144,119.968315 209.180237,118.366165 
	C210.807526,118.714569 212.435776,119.058540 214.061249,119.415215 
	C214.376694,119.484428 214.681290,119.603149 213.844635,119.344032 
	C218.356522,118.096161 221.874023,117.123314 225.752792,116.050545 
	C225.555389,114.909798 225.094742,113.501060 225.110367,112.097626 
	C225.153122,108.259537 230.323120,105.285683 233.851990,106.940346 
	C235.468994,107.698547 237.120636,108.382927 239.164612,109.166840 
z"/>
<path fill="#0D0D0D" opacity="1.000000" stroke="none" 
	d="
M317.978943,190.991333 
	C317.368469,192.125092 316.537872,193.198166 316.204285,194.408249 
	C315.804871,195.857224 315.160736,198.026871 315.843109,198.783279 
	C316.667084,199.696640 318.766693,199.623489 320.322968,199.667725 
	C322.027679,199.716202 323.742371,199.411453 325.452728,199.260651 
	C324.121368,200.921860 323.066986,203.001755 321.376526,204.120132 
	C319.851593,205.128983 317.630402,205.085419 315.717529,205.511642 
	C313.596039,214.411972 311.543304,216.671906 306.213257,215.982315 
	C302.617798,215.517151 299.290619,211.665100 299.308258,207.988037 
	C299.329132,203.625931 302.138092,201.703751 310.453064,200.510101 
	C311.709229,196.754547 309.980713,191.080383 316.735291,190.230896 
	C317.413635,190.708618 317.666656,190.891068 317.978943,190.991333 
M306.165649,211.465500 
	C307.697144,211.027725 309.228607,210.589935 310.760101,210.152145 
	C309.878448,208.680130 309.194550,207.013321 308.024384,205.825546 
	C307.507812,205.301163 306.004578,205.748764 304.949280,205.755127 
	C305.151337,207.499252 305.353394,209.243362 306.165649,211.465500 
z"/>
<path fill="#0E0E0E" opacity="1.000000" stroke="none" 
	d="
M280.984741,408.763855 
	C279.662262,412.687744 277.388763,415.784424 273.438843,414.773438 
	C270.801056,414.098328 267.384979,411.749207 266.710052,409.447571 
	C266.036743,407.151398 267.656189,403.272491 269.563110,401.413574 
	C271.133850,399.882477 274.595398,400.291138 276.390564,399.982544 
	C277.618683,396.793427 278.724365,393.566589 280.165894,390.497498 
	C280.434448,389.925690 282.052032,389.987518 283.047028,389.756927 
	C282.948273,390.751099 282.881592,391.749756 282.743408,392.738403 
	C282.523895,394.308929 281.717896,397.061523 282.101990,397.235596 
	C283.850769,398.028137 285.918823,398.203430 287.891846,398.380157 
	C289.015320,398.480743 290.176788,398.157288 291.321136,398.024780 
	C290.806488,399.258301 290.613678,401.175598 289.717072,401.597626 
	C286.977905,402.886932 283.967957,403.600922 280.601196,404.687897 
	C280.656891,405.206055 280.826996,406.788452 280.984741,408.763855 
M276.019897,406.560944 
	C274.369568,405.918060 272.719269,405.275177 271.068970,404.632324 
	C270.870667,405.668701 270.148224,407.147797 270.576538,407.654938 
	C271.673706,408.953979 273.282562,409.820831 274.686829,410.860504 
	C275.282227,409.622009 275.877594,408.383514 276.019897,406.560944 
z"/>
<path fill="#0E0E0E" opacity="1.000000" stroke="none" 
	d="
M150.056641,23.764454 
	C149.737946,26.611593 149.160797,29.214138 148.583649,31.816681 
	C151.452560,31.816681 154.321472,31.816681 157.220078,31.816681 
	C157.416153,36.362991 154.593887,38.217247 147.540833,37.707687 
	C146.011475,46.653961 143.808884,50.147018 139.532440,48.711227 
	C136.613434,47.731190 133.440613,44.525791 132.418747,41.603020 
	C131.024796,37.615925 134.831818,35.114056 143.599869,33.312618 
	C144.875122,29.666569 142.124008,23.185051 150.056641,23.764454 
M142.809784,43.118397 
	C143.180496,39.785526 141.681107,37.903625 138.352036,38.266483 
	C137.571701,38.351540 136.175354,40.910034 136.465027,41.306957 
	C137.859573,43.217869 139.017593,46.629063 142.809784,43.118397 
z"/>
<path fill="#0D0D0D" opacity="1.000000" stroke="none" 
	d="
M228.866943,293.184326 
	C226.679001,288.915344 224.636963,284.950256 222.904999,280.854034 
	C222.321014,279.472809 221.963394,276.660889 222.471207,276.401764 
	C224.033432,275.604675 226.354233,275.011932 227.859314,275.622955 
	C232.579163,277.539062 237.060349,280.043030 242.054993,283.761353 
	C240.678619,284.330597 239.258591,285.468201 237.933746,285.366455 
	C233.261108,285.007538 231.880417,286.028534 232.439499,290.719849 
	C232.803192,293.771576 231.705917,294.318085 228.866943,293.184326 
z"/>
<path fill="#0D0D0D" opacity="1.000000" stroke="none" 
	d="
M55.261612,109.256226 
	C56.617062,108.487778 58.043800,107.257835 58.789967,107.584152 
	C64.262634,109.977470 69.599014,112.682404 74.978363,115.289093 
	C74.883743,115.702744 74.789131,116.116394 74.694519,116.530045 
	C71.850441,117.443657 68.250580,117.604721 66.377846,119.485512 
	C64.556213,121.314995 64.504105,124.906425 63.675014,127.724190 
	C63.073288,127.851562 62.471565,127.978935 61.869839,128.106308 
	C59.585823,121.909302 57.301811,115.712303 55.261612,109.256226 
z"/>
<path fill="#0D0D0D" opacity="1.000000" stroke="none" 
	d="
M39.997101,311.998779 
	C40.752213,315.036591 41.677299,317.865906 36.411789,316.393097 
	C33.365681,315.541046 31.051943,318.694855 31.206249,322.390869 
	C31.251879,323.483795 30.651535,324.603668 30.347210,325.711182 
	C29.364187,325.074188 27.938265,324.664734 27.474068,323.761200 
	C25.358461,319.643219 23.264433,315.479187 21.649151,311.150146 
	C20.350384,307.669403 22.449757,305.678528 25.971596,306.929749 
	C30.138590,308.410248 34.164829,310.286896 38.879532,311.995911 
	C39.506992,312.000000 39.997101,311.998779 39.997101,311.998779 
z"/>
<path fill="#0E0E0E" opacity="1.000000" stroke="none" 
	d="
M40.400497,312.000061 
	C39.997101,311.998779 39.506992,312.000000 39.262161,312.001343 
	C35.076000,307.989594 33.078526,303.691711 36.647678,298.310394 
	C37.006355,297.769623 36.175335,296.523376 36.094624,295.587433 
	C35.982323,294.285187 36.057220,292.966827 36.051991,291.655365 
	C37.286526,292.186554 38.762829,292.448761 39.709759,293.299927 
	C42.428379,295.743591 44.936012,298.422394 47.520557,301.014771 
	C51.513878,305.020172 51.122578,308.252991 46.057999,310.878693 
	C44.524742,311.673615 42.567123,311.650024 40.400497,312.000061 
M44.455177,306.845337 
	C43.311447,305.008911 42.167713,303.172516 41.023964,301.336090 
	C40.400475,301.989105 39.190624,302.706299 39.253860,303.284210 
	C39.545246,305.947266 40.600830,308.085846 44.455177,306.845337 
z"/>
<path fill="#0E0E0E" opacity="1.000000" stroke="none" 
	d="
M81.232208,110.270248 
	C77.678284,113.863289 74.015923,113.482201 70.682449,110.991653 
	C67.106094,108.319641 67.532639,104.529053 69.609528,101.219833 
	C71.028549,98.958824 71.085121,97.485489 69.248177,95.591095 
	C68.727524,95.054169 69.073822,93.676575 69.022522,92.684525 
	C70.074829,92.716293 71.537086,92.310623 72.113197,92.850533 
	C75.972855,96.467621 79.899414,100.082367 83.178032,104.196892 
	C83.904579,105.108673 82.126930,108.015907 81.232208,110.270248 
M72.240692,103.746796 
	C73.224129,105.328110 74.063980,107.035507 75.276199,108.415909 
	C75.652672,108.844612 77.177200,108.644211 77.916382,108.247650 
	C78.446106,107.963448 79.002251,106.602638 78.757469,106.187775 
	C77.410187,103.904305 76.381775,100.609459 72.240692,103.746796 
z"/>
<path fill="#0D0D0D" opacity="1.000000" stroke="none" 
	d="
M318.328705,191.027237 
	C317.666656,190.891068 317.413635,190.708618 317.114258,190.231964 
	C316.210297,188.410324 315.178253,186.866562 314.699524,185.166931 
	C314.401825,184.110092 314.941895,182.817291 315.105957,181.630386 
	C316.099915,181.952042 317.493103,181.971848 318.009369,182.654678 
	C319.308319,184.372665 320.211487,186.389908 321.273315,188.287186 
	C321.928040,187.734879 322.582794,187.182571 323.237518,186.630264 
	C323.867645,184.511429 324.497772,182.392578 325.406525,179.336853 
	C326.871399,182.572754 327.314056,185.259109 328.896240,186.567490 
	C330.493744,187.888535 333.221191,187.843185 335.999115,189.647507 
	C333.959412,190.729324 331.919678,191.811142 329.719116,192.978271 
	C329.550537,194.250031 329.319519,195.993073 328.976898,198.578247 
	C324.974976,195.657898 321.826721,193.360519 318.328705,191.027237 
z"/>
<path fill="#0E0E0E" opacity="1.000000" stroke="none" 
	d="
M285.779205,383.271545 
	C287.014008,384.284851 287.994171,385.043762 288.973785,385.802277 
	C290.098755,383.004272 291.081451,380.560120 292.064117,378.115967 
	C292.725342,377.921814 293.386536,377.727661 294.047729,377.533508 
	C292.170837,386.345459 297.500366,387.125397 303.530701,387.124237 
	C303.532440,387.715424 303.534180,388.306610 303.535889,388.897797 
	C300.616211,389.740479 297.696503,390.583160 294.594574,391.478424 
	C294.611877,391.513367 295.188782,392.177979 295.230438,392.874573 
	C295.299561,394.030975 295.024780,395.207977 294.894836,396.376282 
	C293.902069,396.054047 292.650146,396.008392 291.960663,395.362427 
	C288.692780,392.300720 285.424316,389.209290 282.491180,385.836945 
	C281.434509,384.622040 281.315308,382.591766 280.768280,380.933594 
	C282.353699,381.628143 283.939148,382.322693 285.779205,383.271545 
z"/>
<path fill="#0D0D0D" opacity="1.000000" stroke="none" 
	d="
M281.993347,72.018539 
	C279.229034,68.625618 276.697601,65.000053 273.620270,61.919842 
	C271.492706,59.790260 269.947327,58.149258 272.699097,54.853214 
	C275.133240,56.895870 277.448334,58.838596 280.170502,61.122932 
	C280.852203,58.231213 281.433472,55.765480 282.014771,53.299747 
	C282.524170,53.322136 283.033600,53.344528 283.542999,53.366920 
	C283.808563,55.667946 284.074127,57.968971 284.347748,60.339966 
	C287.238464,60.965511 289.988678,61.560658 292.738922,62.155800 
	C292.795319,62.821018 292.851715,63.486237 292.908142,64.151459 
	C290.611755,64.853783 288.315369,65.556114 285.677795,66.362808 
	C286.534393,68.496574 287.725067,71.706955 282.359131,71.994652 
	C282.000610,71.999718 281.993347,72.018539 281.993347,72.018539 
z"/>
<path fill="#0E0E0E" opacity="1.000000" stroke="none" 
	d="
M102.998779,76.998299 
	C105.030075,82.002533 105.999802,86.906342 100.755211,90.611725 
	C99.785469,91.296867 97.583221,91.716393 96.937782,91.144165 
	C92.395630,87.117180 88.112106,82.798477 83.745956,78.572968 
	C84.049217,78.023399 84.352470,77.473839 84.655724,76.924271 
	C86.862694,77.390656 89.069664,77.857033 91.698502,78.412567 
	C94.360802,74.936249 98.252701,75.804398 102.595963,76.991463 
	C103.000000,77.000000 102.998779,76.998299 102.998779,76.998299 
M98.724640,86.696472 
	C102.564079,85.530022 100.915848,82.959221 99.479050,81.545250 
	C98.473892,80.556061 96.175362,80.881149 94.454483,80.619247 
	C94.148537,81.366402 93.842598,82.113564 93.536652,82.860718 
	C95.052399,84.048103 96.568153,85.235489 98.724640,86.696472 
z"/>
<path fill="#1C1C1C" opacity="1.000000" stroke="none" 
	d="
M78.119690,253.239990 
	C87.072380,252.120041 96.169441,251.331161 105.669678,250.622345 
	C103.827957,254.634796 100.558998,255.226166 95.687553,252.720093 
	C98.858078,259.084351 94.899040,261.848907 91.559158,264.761597 
	C90.983185,265.263916 89.637062,264.883118 88.646683,264.910217 
	C88.834656,263.932343 88.731186,262.731201 89.272766,262.024170 
	C90.321457,260.655090 91.733315,259.564178 93.693687,257.689514 
	C87.932899,256.004303 81.029564,261.548431 78.119690,253.239990 
z"/>
<path fill="#0D0D0D" opacity="1.000000" stroke="none" 
	d="
M151.704880,16.204678 
	C153.246933,17.634247 154.532532,18.808475 155.655487,19.834148 
	C156.429657,17.020796 157.101257,14.580146 157.772873,12.139496 
	C158.386292,12.241215 158.999710,12.342933 159.613129,12.444652 
	C159.837845,14.652075 160.062561,16.859497 160.348846,19.671753 
	C162.056458,19.784967 163.847702,19.699663 165.529739,20.087694 
	C166.632965,20.342196 167.578339,21.280937 168.594406,21.913239 
	C167.639679,22.604553 166.773422,23.576408 165.706757,23.912817 
	C164.501022,24.293095 163.115295,24.102642 161.726288,24.163975 
	C161.726288,26.097918 161.726288,27.806320 161.726288,29.514721 
	C159.831223,28.812618 157.534973,28.562881 156.125641,27.313053 
	C153.300674,24.807785 150.856903,21.839392 148.474655,18.885643 
	C147.603455,17.805431 147.353302,16.224321 146.819824,14.871720 
	C148.362686,15.230927 149.905563,15.590133 151.704880,16.204678 
z"/>
<path fill="#0E0E0E" opacity="1.000000" stroke="none" 
	d="
M139.897552,382.341187 
	C138.552673,385.398224 137.340866,388.207794 135.612274,390.651855 
	C135.114563,391.355621 133.127975,391.006378 131.824005,391.139893 
	C132.117416,390.026306 132.172653,388.761414 132.761154,387.835358 
	C133.601212,386.513489 134.831894,385.439880 135.895721,384.260223 
	C135.722733,383.845276 135.549744,383.430359 135.376755,383.015411 
	C133.318512,383.481445 131.239441,384.387482 129.207840,384.291199 
	C127.125572,384.192566 124.449402,383.679535 123.223984,382.294403 
	C122.123566,381.050629 121.863739,377.994476 122.635056,376.428192 
	C123.647438,374.372437 126.000916,372.952637 127.892845,371.399689 
	C128.047714,371.272552 129.522049,372.148560 129.612793,372.688049 
	C129.752014,373.515625 129.430023,374.601715 128.929626,375.316040 
	C128.044861,376.579071 126.878578,377.644958 124.944389,379.763489 
	C131.064697,379.778625 136.613495,374.823669 139.897552,382.341187 
z"/>
<path fill="#0D0D0D" opacity="1.000000" stroke="none" 
	d="
M291.030518,233.951813 
	C288.340576,233.307129 287.280273,232.510284 289.792480,230.465393 
	C291.168121,229.345673 292.107086,227.689499 293.242920,226.275223 
	C292.997040,225.937317 292.751129,225.599411 292.505219,225.261505 
	C290.176971,225.815323 287.858612,226.732285 285.516998,226.796143 
	C283.937347,226.839233 281.293182,226.025772 280.942841,224.984161 
	C280.224030,222.846817 280.092255,220.039627 280.925018,218.000870 
	C281.603119,216.340668 284.037781,215.397949 285.693542,214.137070 
	C286.162933,215.198654 287.241058,216.471466 286.962708,217.273560 
	C286.516510,218.559525 285.171875,219.533722 283.411896,221.550934 
	C285.629120,221.657104 287.060822,222.106476 288.198944,221.710983 
	C292.105286,220.353638 296.227631,220.405624 297.284576,224.586929 
	C297.867188,226.891785 295.002014,230.128021 293.515320,232.848236 
	C293.198029,233.428802 292.119141,233.593124 291.030518,233.951813 
z"/>
<path fill="#111111" opacity="1.000000" stroke="none" 
	d="
M204.968903,145.988464 
	C202.781235,147.581772 200.593582,149.175079 197.916061,151.097717 
	C196.588593,151.943008 195.750977,152.458984 194.652786,152.952393 
	C194.220367,152.900238 194.048523,152.870667 193.876663,152.841080 
	C192.386581,148.487015 191.306976,144.225677 194.667847,140.070129 
	C195.061920,139.582901 193.643967,137.845291 193.493118,136.634140 
	C193.372711,135.667191 193.902695,134.619247 194.143982,133.607254 
	C195.006042,133.826569 196.052338,133.808258 196.697021,134.307999 
	C199.001556,136.094406 201.169876,138.056564 204.049133,140.157013 
	C205.174484,141.661758 205.640442,142.961731 206.004700,144.508057 
	C205.591629,145.165771 205.280258,145.577118 204.968903,145.988464 
z"/>
<path fill="#0D0D0D" opacity="1.000000" stroke="none" 
	d="
M113.982887,58.296967 
	C111.230301,55.431671 111.153137,52.601349 113.533775,50.096317 
	C115.347397,48.187923 117.418869,45.744316 120.936516,48.485538 
	C119.230507,50.347488 117.668510,52.052254 116.106522,53.757019 
	C116.310806,54.190487 116.515083,54.623959 116.719368,55.057426 
	C118.569672,54.508820 120.446159,53.449081 122.263580,53.542210 
	C124.487648,53.656178 127.357948,54.120392 128.651108,55.581615 
	C129.809113,56.890133 130.095596,60.309082 129.167480,61.804359 
	C127.842926,63.938343 125.129044,65.280945 122.837021,66.680649 
	C122.404236,66.944939 121.170517,65.897667 120.181244,65.391556 
	C122.809189,62.909863 124.548637,61.267208 126.288094,59.624557 
	C126.090385,59.263607 125.892670,58.902657 125.694962,58.541706 
	C121.903740,58.541706 118.112518,58.541706 113.982887,58.296967 
z"/>
<path fill="#171717" opacity="1.000000" stroke="none" 
	d="
M281.055725,77.519516 
	C280.566376,77.989136 280.120300,78.087212 278.945068,78.203964 
	C275.810638,78.480659 273.405396,78.738670 270.589874,78.905853 
	C268.787781,78.914284 267.395935,79.013550 265.639832,79.039841 
	C263.812164,79.084160 262.348785,79.201454 260.644928,79.235764 
	C259.915192,79.246658 259.425903,79.340546 258.701294,79.319839 
	C258.313416,79.120682 258.160797,79.036110 258.008148,78.951530 
	C258.526093,75.566673 260.884369,74.755943 263.791229,75.040573 
	C267.002380,75.354996 268.335815,74.155212 268.080322,70.864655 
	C267.985077,69.637772 268.282013,67.983231 269.069305,67.177734 
	C270.262390,65.957001 272.040283,65.307777 273.569702,64.415741 
	C273.313629,65.865875 272.986481,67.308022 272.822174,68.768486 
	C272.668121,70.137680 272.127136,71.980812 272.779724,72.783562 
	C273.488861,73.655930 275.426178,73.959915 276.740326,73.798454 
	C278.282349,73.609024 279.730011,72.651390 281.605957,72.022736 
	C281.993347,72.018539 282.000610,71.999718 281.991089,72.003204 
	C281.687347,73.720451 281.393158,75.434212 281.055725,77.519516 
z"/>
<path fill="#0D0D0D" opacity="1.000000" stroke="none" 
	d="
M103.000839,77.000610 
	C102.541069,74.353050 100.961464,71.236404 101.836098,69.147240 
	C104.172554,63.566338 108.992928,63.718357 112.852058,69.234917 
	C112.058296,70.162735 111.196030,71.129967 110.380753,72.135292 
	C109.600601,73.097298 108.869293,74.098900 108.116516,75.083107 
	C108.415955,75.432190 108.715385,75.781281 109.014824,76.130363 
	C110.288124,75.212059 111.479614,74.132294 112.863037,73.431328 
	C113.809883,72.951584 115.024086,72.999527 116.118767,72.811562 
	C115.970802,73.810707 116.145287,75.039764 115.623116,75.772102 
	C111.926620,80.956413 108.470284,81.353241 103.316559,77.161407 
	C102.998779,76.998299 103.000000,77.000000 103.000839,77.000610 
z"/>
<path fill="#0E0E0E" opacity="1.000000" stroke="none" 
	d="
M92.866600,98.588577 
	C87.816635,103.447716 84.463264,103.146423 80.301140,97.779823 
	C77.853752,94.624184 78.550545,90.045631 82.685455,88.194084 
	C84.936531,87.186096 88.579842,87.613998 90.889229,88.785736 
	C94.745811,90.742485 94.865219,94.519623 92.866600,98.588577 
M84.745171,91.236038 
	C81.284637,93.751320 83.835869,95.564217 85.714912,96.958984 
	C86.492577,97.536232 88.202118,96.858040 89.487846,96.750809 
	C88.747154,95.115929 88.090736,93.433502 87.212196,91.876396 
	C86.962730,91.434242 86.066109,91.357224 84.745171,91.236038 
z"/>
<path fill="#0E0E0E" opacity="1.000000" stroke="none" 
	d="
M49.695389,286.298096 
	C55.724682,285.901733 59.470516,287.971161 59.928936,291.928528 
	C60.319027,295.296112 60.054020,298.634003 56.305969,300.308167 
	C52.814518,301.867706 49.229588,301.347015 47.782330,297.969177 
	C46.598087,295.205170 47.143520,291.641144 47.227940,288.439850 
	C47.245876,287.759705 48.587986,287.114471 49.695389,286.298096 
M50.054337,293.366821 
	C51.435101,294.496979 52.815865,295.627106 54.196640,296.757233 
	C54.779064,295.841675 55.973331,294.791687 55.808243,294.040405 
	C55.522095,292.738251 54.600018,290.953308 53.556129,290.631653 
	C52.675842,290.360382 51.244255,291.878265 50.054337,293.366821 
z"/>
<path fill="#121212" opacity="1.000000" stroke="none" 
	d="
M137.959534,365.397827 
	C139.025604,365.918304 140.071609,366.783142 141.069031,368.311279 
	C140.070480,373.890167 141.702347,375.193146 148.287033,374.776611 
	C148.287033,374.776611 148.273224,374.827759 148.278687,374.799744 
	C147.180084,376.787201 146.509888,379.619141 144.813782,380.520477 
	C143.748947,381.086304 140.631104,379.177704 139.345825,377.624878 
	C137.245514,375.087280 132.397797,375.532898 132.482864,370.442444 
	C132.535309,367.303070 131.690842,365.110016 135.988129,367.240845 
	C136.311356,367.401154 137.274017,366.271942 137.959534,365.397827 
z"/>
<path fill="#1A1A1A" opacity="1.000000" stroke="none" 
	d="
M206.106400,144.261688 
	C205.640442,142.961731 205.174484,141.661758 204.400696,140.189056 
	C203.877289,137.754456 203.039902,135.333191 203.570694,133.262634 
	C204.823822,128.374435 209.120270,127.323524 215.638428,130.019012 
	C216.098938,130.378296 216.265854,130.617172 216.821716,131.072937 
	C217.435074,131.229095 217.736481,131.114548 218.037903,130.999985 
	C218.721680,130.982132 219.405472,130.964279 220.431274,130.940735 
	C220.773315,130.935043 220.831299,131.290848 220.535461,131.604431 
	C218.997757,133.220566 217.755905,134.523148 216.514069,135.825729 
	C215.905899,136.271759 215.297729,136.717789 214.365799,136.833252 
	C212.421249,135.057037 210.800461,133.611374 209.179688,132.165710 
	C208.468491,133.115067 207.003677,134.725906 207.164825,134.909500 
	C208.498947,136.429398 210.130493,137.689285 211.685638,139.011826 
	C211.788055,139.098907 212.002274,139.054474 212.164490,139.071213 
	C211.222122,140.052002 210.279755,141.032776 208.899704,142.391541 
	C207.676819,143.266891 206.891602,143.764297 206.106400,144.261688 
z"/>
<path fill="#141414" opacity="1.000000" stroke="none" 
	d="
M193.510788,152.886429 
	C194.048523,152.870667 194.220367,152.900238 194.633286,153.149597 
	C194.874359,153.369354 194.894470,153.765137 194.894470,153.765137 
	C191.013748,156.234894 187.133026,158.704651 182.843536,161.445526 
	C182.434769,161.716660 181.974869,161.671585 181.974869,161.671585 
	C181.406281,160.024704 181.150528,158.166077 180.207413,156.772675 
	C177.859985,153.304550 177.447845,150.448242 181.614685,148.396957 
	C185.528412,149.936218 189.336670,151.433990 193.510788,152.886429 
z"/>
<path fill="#0E0E0E" opacity="1.000000" stroke="none" 
	d="
M131.267181,47.744934 
	C132.823929,48.893951 134.106415,49.842781 135.466461,50.662979 
	C136.481247,51.274963 137.596268,51.720722 138.666656,52.240509 
	C137.219818,53.450142 135.132614,55.985874 134.432999,55.648045 
	C130.691223,53.841213 127.106178,51.549522 123.881104,48.917900 
	C122.715958,47.967152 122.529434,45.635155 122.239441,43.876869 
	C122.110298,43.093834 122.829849,42.170830 123.132187,41.393658 
	C125.570206,41.905754 127.699265,42.352955 130.235641,42.885712 
	C130.459671,44.190243 130.742950,45.839878 131.267181,47.744934 
z"/>
<path fill="#0E0E0E" opacity="1.000000" stroke="none" 
	d="
M295.593201,218.144928 
	C293.017883,215.806427 290.722443,213.720856 288.427002,211.635300 
	C288.770355,210.892181 289.113708,210.149078 289.457062,209.405960 
	C292.086151,209.667587 294.715210,209.929214 297.632416,210.219513 
	C297.700012,215.657791 300.504852,218.281006 305.584473,218.374908 
	C304.661530,223.205093 302.325287,224.260345 299.062561,221.529053 
	C297.923706,220.575729 296.932007,219.446671 295.593201,218.144928 
z"/>
<path fill="#F6F6F6" opacity="1.000000" stroke="none" 
	d="
M257.597717,79.078568 
	C258.160797,79.036110 258.313416,79.120682 258.319275,79.565689 
	C255.352798,84.122055 257.584808,86.745392 260.997559,89.001175 
	C260.997955,89.750015 260.998352,90.498863 260.998779,91.622025 
	C257.631500,91.305733 254.362534,90.705460 254.681717,85.914734 
	C254.741531,85.016853 252.877533,83.815376 251.705597,83.056015 
	C250.292389,82.140305 248.670380,81.546799 247.067566,80.460106 
	C250.393326,79.806129 253.790314,79.505859 257.597717,79.078568 
z"/>
<path fill="#C0C0C0" opacity="1.000000" stroke="none" 
	d="
M58.912563,174.945374 
	C59.360439,175.475327 59.685287,175.875076 60.556332,176.821289 
	C56.507477,177.168228 51.912426,176.968704 47.317375,176.769196 
	C47.328846,176.117844 47.340317,175.466492 47.351788,174.815140 
	C51.164371,174.815140 54.976955,174.815140 58.912563,174.945374 
z"/>
<path fill="#F6F6F6" opacity="1.000000" stroke="none" 
	d="
M241.968323,100.368141 
	C243.614685,99.752724 245.371124,99.380646 247.146240,99.156197 
	C249.853378,98.813911 250.437454,100.012093 249.144928,102.663162 
	C247.557053,103.330254 246.115250,103.662796 244.294617,103.982269 
	C243.306107,102.871994 242.696426,101.774796 241.968323,100.368141 
z"/>
<path fill="#F6F6F6" opacity="1.000000" stroke="none" 
	d="
M232.019409,91.336517 
	C234.132431,90.868965 236.237061,90.859146 236.053528,94.409241 
	C234.749786,93.745201 233.435776,92.693306 232.019409,91.336517 
z"/>
<path fill="#1C1C1C" opacity="1.000000" stroke="none" 
	d="
M153.229462,241.368011 
	C154.486526,240.577560 155.937592,240.018967 157.725677,239.507874 
	C156.516296,240.236862 154.969879,240.918365 153.229462,241.368011 
z"/>
<path fill="#C0C0C0" opacity="1.000000" stroke="none" 
	d="
M91.154915,177.286255 
	C91.789055,176.923157 92.721748,176.699158 93.817566,176.693405 
	C93.138283,177.082870 92.295868,177.254120 91.154915,177.286255 
z"/>
<path fill="#F6F6F6" opacity="1.000000" stroke="none" 
	d="
M223.646484,81.175186 
	C224.018219,81.931259 224.025848,82.592262 224.031372,83.583809 
	C223.295425,83.189049 222.561584,82.463745 221.827728,81.738441 
	C222.312622,81.519005 222.797516,81.299568 223.646484,81.175186 
z"/>
<path fill="#C0C0C0" opacity="1.000000" stroke="none" 
	d="
M101.116554,176.269501 
	C101.481667,175.932297 102.104263,175.723129 102.852905,175.708130 
	C102.443985,176.067368 101.909012,176.232437 101.116554,176.269501 
z"/>
<path fill="#F6F6F6" opacity="1.000000" stroke="none" 
	d="
M181.794312,161.874725 
	C181.974869,161.671585 182.434769,161.716660 182.665680,161.724792 
	C182.371841,162.286331 181.847107,162.839706 181.141541,163.147827 
	C181.178375,162.627655 181.396057,162.352768 181.794312,161.874725 
z"/>
<path fill="#1C1C1C" opacity="1.000000" stroke="none" 
	d="
M134.141647,246.238739 
	C134.500381,245.765823 134.997009,245.517853 135.771454,245.338989 
	C135.459366,245.759964 134.869446,246.111832 134.141647,246.238739 
z"/>
<path fill="#1C1C1C" opacity="1.000000" stroke="none" 
	d="
M167.592087,236.668335 
	C167.995361,236.167877 168.722977,235.807358 169.756592,235.499176 
	C169.347198,235.970428 168.631805,236.389359 167.592087,236.668335 
z"/>
<path fill="#1C1C1C" opacity="1.000000" stroke="none" 
	d="
M146.162933,243.313858 
	C146.514633,242.831329 147.004440,242.568878 147.773560,242.374573 
	C147.468948,242.806458 146.884995,243.170197 146.162933,243.313858 
z"/>
<path fill="#1C1C1C" opacity="1.000000" stroke="none" 
	d="
M142.165298,244.320557 
	C142.518997,243.848495 143.010895,243.593811 143.779266,243.408539 
	C143.471664,243.831284 142.887573,244.184616 142.165298,244.320557 
z"/>
<path fill="#1C1C1C" opacity="1.000000" stroke="none" 
	d="
M138.157349,245.294434 
	C138.514984,244.831650 139.009888,244.587524 139.780334,244.412186 
	C139.468765,244.824997 138.881683,245.169037 138.157349,245.294434 
z"/>
<path fill="#1C1C1C" opacity="1.000000" stroke="none" 
	d="
M112.121536,250.196823 
	C112.503700,249.765167 113.015053,249.558136 113.793343,249.447586 
	C113.457092,249.836517 112.853912,250.128998 112.121536,250.196823 
z"/>
<path fill="#1C1C1C" opacity="1.000000" stroke="none" 
	d="
M118.142876,249.259415 
	C118.522018,248.845612 119.031898,248.645645 119.804047,248.541046 
	C119.468742,248.915344 118.871178,249.194305 118.142876,249.259415 
z"/>
<path fill="#1C1C1C" opacity="1.000000" stroke="none" 
	d="
M124.138260,248.234650 
	C124.506401,247.789139 125.009308,247.565338 125.784325,247.418503 
	C125.461960,247.815765 124.867485,248.136047 124.138260,248.234650 
z"/>
<path fill="#1C1C1C" opacity="1.000000" stroke="none" 
	d="
M129.152100,247.274506 
	C129.512878,246.818573 130.010849,246.581161 130.782593,246.417847 
	C130.467331,246.825653 129.878296,247.159348 129.152100,247.274506 
z"/>
<path fill="#030303" opacity="1.000000" stroke="none" 
	d="
M105.466278,405.400360 
	C106.283577,405.233429 107.105362,405.066833 107.210358,405.270264 
	C108.089989,406.974274 108.837967,408.746277 109.625626,410.497772 
	C108.813019,410.814423 107.571419,411.632019 107.259094,411.364563 
	C105.537643,409.890289 102.561363,408.667847 105.466278,405.400360 
z"/>
<path fill="#FAFAFA" opacity="1.000000" stroke="none" 
	d="
M111.700119,221.519104 
	C111.336975,217.647446 113.045082,217.249756 115.588257,219.197159 
	C117.279953,220.492554 118.562447,222.315781 120.228165,223.653656 
	C121.645470,224.791992 123.348747,225.574295 124.925499,226.514114 
	C124.636208,227.377579 124.346916,228.241043 124.057625,229.104507 
	C121.385040,229.859650 118.105721,231.968430 116.162094,231.097244 
	C111.670616,229.084015 116.487022,226.296310 116.761223,223.033691 
	C115.208923,222.618408 113.597336,222.187271 111.700119,221.519104 
z"/>
<path fill="#FEFEFE" opacity="1.000000" stroke="none" 
	d="
M261.368652,89.005753 
	C257.584808,86.745392 255.352798,84.122055 258.554565,79.680275 
	C259.425903,79.340546 259.915192,79.246658 260.666534,79.670967 
	C262.074066,82.076897 263.219574,83.964645 264.365051,85.852402 
	C265.242279,84.235100 266.119476,82.617805 267.296295,80.980316 
	C268.731018,80.973228 269.866119,80.986328 271.000610,80.999718 
	C271.000000,81.000000 271.001221,80.999054 271.001221,80.999054 
	C270.549927,87.939308 267.898834,90.232544 261.368652,89.005753 
z"/>
<path fill="#F6F6F6" opacity="1.000000" stroke="none" 
	d="
M254.372482,98.989502 
	C253.667160,93.865280 250.126846,94.215828 246.569534,94.694603 
	C244.575287,94.963013 242.598969,95.364418 240.174973,94.949173 
	C243.901108,91.995987 246.671829,89.325478 243.406631,84.810486 
	C247.732773,88.440285 252.058929,92.070076 256.690094,95.850967 
	C256.244476,96.995590 255.493805,97.989128 254.372482,98.989502 
z"/>
<path fill="#030303" opacity="1.000000" stroke="none" 
	d="
M212.432037,138.999619 
	C212.002274,139.054474 211.788055,139.098907 211.685638,139.011826 
	C210.130493,137.689285 208.498947,136.429398 207.164825,134.909500 
	C207.003677,134.725906 208.468491,133.115067 209.179688,132.165710 
	C210.800461,133.611374 212.421249,135.057037 214.087769,136.898743 
	C213.655502,137.839188 213.177536,138.383606 212.432037,138.999619 
z"/>
<path fill="#030303" opacity="1.000000" stroke="none" 
	d="
M222.188904,129.635330 
	C221.247391,128.426620 220.290482,127.194557 220.003342,125.822357 
	C219.719849,124.467529 220.113647,122.970970 220.210327,121.536591 
	C221.367157,122.026833 222.532394,122.498482 223.677307,123.015137 
	C224.252472,123.274704 224.790680,123.616142 225.775360,124.275551 
	C226.041550,124.773193 225.877975,124.915848 225.403412,125.075607 
	C224.701904,125.987160 224.311417,126.881592 223.920914,127.776024 
	C223.436234,128.367538 222.951553,128.959076 222.188904,129.635330 
z"/>
<path fill="#F6F6F6" opacity="1.000000" stroke="none" 
	d="
M225.714417,125.058495 
	C225.877975,124.915848 226.041550,124.773193 226.133011,124.313080 
	C227.558350,122.984093 229.055801,121.972557 230.824875,120.821350 
	C231.824982,121.803444 232.553467,122.925201 233.281967,124.046951 
	C231.430176,124.373962 229.578400,124.700974 227.040314,125.036110 
	C226.140823,125.048996 225.927628,125.053749 225.714417,125.058495 
z"/>
<path fill="#F6F6F6" opacity="1.000000" stroke="none" 
	d="
M271.000122,78.996681 
	C273.405396,78.738670 275.810638,78.480659 278.616028,78.308334 
	C277.557343,81.873917 275.010315,82.591652 271.334290,81.144165 
	C271.001221,80.999054 271.000000,81.000000 271.000458,80.665932 
	C271.000641,79.886803 271.000397,79.441742 271.000122,78.996681 
z"/>
<path fill="#FAFAFA" opacity="1.000000" stroke="none" 
	d="
M109.930344,230.960098 
	C108.551758,234.200119 107.087303,232.602463 105.959763,231.230072 
	C105.554619,230.736969 105.973198,229.567108 106.015846,228.706100 
	C107.321693,229.334198 108.627541,229.962296 109.930344,230.960098 
z"/>
<path fill="#F6F6F6" opacity="1.000000" stroke="none" 
	d="
M191.294357,162.794250 
	C191.114685,161.193130 191.284836,159.654083 191.454987,158.115021 
	C192.106583,158.210663 192.758179,158.306320 193.409775,158.401962 
	C194.076660,160.049545 194.805527,161.705170 191.294357,162.794250 
z"/>
<path fill="#F6F6F6" opacity="1.000000" stroke="none" 
	d="
M195.090103,154.075241 
	C194.894470,153.765137 194.874359,153.369354 194.893860,153.172165 
	C195.750977,152.458984 196.588593,151.943008 197.721741,151.381714 
	C198.779861,152.690079 199.542450,154.043762 200.901596,156.456390 
	C198.511322,155.574890 196.898529,154.980118 195.090103,154.075241 
z"/>
<path fill="#F6F6F6" opacity="1.000000" stroke="none" 
	d="
M206.004700,144.508057 
	C206.891602,143.764297 207.676819,143.266891 208.733932,142.694443 
	C209.560684,143.318436 210.115509,144.017502 210.670349,144.716553 
	C209.058594,145.147095 207.446823,145.577637 205.401978,145.998322 
	C205.280258,145.577118 205.591629,145.165771 206.004700,144.508057 
z"/>
<path fill="#F6F6F6" opacity="1.000000" stroke="none" 
	d="
M216.893311,135.890152 
	C217.755905,134.523148 218.997757,133.220566 220.550217,131.784058 
	C221.797195,134.862610 222.655945,138.010406 216.893311,135.890152 
z"/>
<path fill="#1A1A1A" opacity="1.000000" stroke="none" 
	d="
M225.403412,125.075607 
	C225.927628,125.053749 226.140823,125.048996 226.673248,125.023155 
	C226.163071,125.872101 225.333694,126.742126 224.212616,127.694092 
	C224.311417,126.881592 224.701904,125.987160 225.403412,125.075607 
z"/>
<path fill="#FAFAFA" opacity="1.000000" stroke="none" 
	d="
M164.733444,351.234039 
	C166.398773,352.827972 167.598999,353.955048 165.079605,355.647919 
	C163.009079,357.039215 161.158661,359.371613 158.759399,356.953461 
	C157.928207,356.115692 158.139191,353.849548 158.470154,352.369080 
	C158.773270,351.013214 159.880157,349.836975 160.989761,347.986389 
	C162.176941,349.005066 163.332336,349.996460 164.733444,351.234039 
z"/>
<path fill="#010101" opacity="1.000000" stroke="none" 
	d="
M148.162476,374.454590 
	C141.702347,375.193146 140.070480,373.890167 141.156067,368.592194 
	C143.540436,370.184082 145.789169,372.158325 148.162476,374.454590 
z"/>
<path fill="#030303" opacity="1.000000" stroke="none" 
	d="
M262.760864,247.933197 
	C267.020294,247.736816 268.166107,249.910049 267.559448,253.937897 
	C264.142883,253.177689 261.766632,252.088440 262.760864,247.933197 
z"/>
<path fill="#030303" opacity="1.000000" stroke="none" 
	d="
M66.301849,284.983673 
	C64.455383,284.252655 62.759403,283.348053 61.313999,282.142944 
	C61.052341,281.924805 61.569798,280.132599 62.179989,279.688110 
	C62.791706,279.242462 64.602859,279.252533 64.789284,279.620178 
	C65.592453,281.204132 65.991829,282.992920 66.301849,284.983673 
z"/>
<path fill="#030303" opacity="1.000000" stroke="none" 
	d="
M252.415329,258.353668 
	C253.649719,258.516449 255.110992,258.604462 255.322266,259.164276 
	C255.901031,260.697845 255.953979,262.429840 256.215118,264.083282 
	C254.670670,263.747620 252.838501,263.821472 251.646545,262.984070 
	C249.663437,261.590881 249.298050,259.742249 252.415329,258.353668 
z"/>
<path fill="#030303" opacity="1.000000" stroke="none" 
	d="
M244.699081,275.829712 
	C242.935425,274.349213 241.534866,272.774689 240.134308,271.200195 
	C240.937683,270.616486 241.741058,270.032806 242.544434,269.449097 
	C243.383682,271.544647 244.222931,273.640167 244.699081,275.829712 
z"/>
<path fill="#010101" opacity="1.000000" stroke="none" 
	d="
M217.754288,130.998230 
	C217.736481,131.114548 217.435074,131.229095 217.018616,131.176147 
	C217.092606,131.004578 217.281631,131.000519 217.754288,130.998230 
z"/>
<path fill="#030303" opacity="1.000000" stroke="none" 
	d="
M305.860535,211.226501 
	C305.353394,209.243362 305.151337,207.499252 304.949280,205.755127 
	C306.004578,205.748764 307.507812,205.301163 308.024384,205.825546 
	C309.194550,207.013321 309.878448,208.680130 310.760101,210.152145 
	C309.228607,210.589935 307.697144,211.027725 305.860535,211.226501 
z"/>
<path fill="#030303" opacity="1.000000" stroke="none" 
	d="
M276.246429,406.852966 
	C275.877594,408.383514 275.282227,409.622009 274.686829,410.860504 
	C273.282562,409.820831 271.673706,408.953979 270.576538,407.654938 
	C270.148224,407.147797 270.870667,405.668701 271.068970,404.632324 
	C272.719269,405.275177 274.369568,405.918060 276.246429,406.852966 
z"/>
<path fill="#030303" opacity="1.000000" stroke="none" 
	d="
M142.641876,43.453987 
	C139.017593,46.629063 137.859573,43.217869 136.465027,41.306957 
	C136.175354,40.910034 137.571701,38.351540 138.352036,38.266483 
	C141.681107,37.903625 143.180496,39.785526 142.641876,43.453987 
z"/>
<path fill="#030303" opacity="1.000000" stroke="none" 
	d="
M44.209518,307.097656 
	C40.600830,308.085846 39.545246,305.947266 39.253860,303.284210 
	C39.190624,302.706299 40.400475,301.989105 41.023972,301.336090 
	C42.167713,303.172516 43.311447,305.008911 44.209518,307.097656 
z"/>
<path fill="#030303" opacity="1.000000" stroke="none" 
	d="
M72.417572,103.426926 
	C76.381775,100.609459 77.410187,103.904305 78.757469,106.187775 
	C79.002251,106.602638 78.446106,107.963448 77.916382,108.247650 
	C77.177200,108.644211 75.652672,108.844612 75.276199,108.415909 
	C74.063980,107.035507 73.224129,105.328110 72.417572,103.426926 
z"/>
<path fill="#030303" opacity="1.000000" stroke="none" 
	d="
M98.404266,86.559677 
	C96.568153,85.235489 95.052399,84.048103 93.536652,82.860718 
	C93.842598,82.113564 94.148537,81.366402 94.454483,80.619247 
	C96.175362,80.881149 98.473892,80.556061 99.479050,81.545250 
	C100.915848,82.959221 102.564079,85.530022 98.404266,86.559677 
z"/>
<path fill="#F6F6F6" opacity="1.000000" stroke="none" 
	d="
M266.996674,81.000504 
	C266.119476,82.617805 265.242279,84.235100 264.365051,85.852402 
	C263.219574,83.964645 262.074066,82.076897 260.906982,79.753952 
	C262.348785,79.201454 263.812164,79.084160 265.662476,79.323975 
	C266.365143,80.120895 266.680908,80.560699 266.996674,81.000504 
z"/>
<path fill="#FDFDFD" opacity="1.000000" stroke="none" 
	d="
M267.296295,80.980316 
	C266.680908,80.560699 266.365143,80.120895 266.026733,79.396942 
	C267.395935,79.013550 268.787781,78.914284 270.589874,78.905853 
	C271.000397,79.441742 271.000641,79.886803 271.001068,80.665649 
	C269.866119,80.986328 268.731018,80.973228 267.296295,80.980316 
z"/>
<path fill="#030303" opacity="1.000000" stroke="none" 
	d="
M85.105728,91.174393 
	C86.066109,91.357224 86.962730,91.434242 87.212196,91.876396 
	C88.090736,93.433502 88.747154,95.115929 89.487854,96.750809 
	C88.202118,96.858040 86.492577,97.536232 85.714912,96.958984 
	C83.835869,95.564217 81.284637,93.751320 85.105728,91.174393 
z"/>
<path fill="#030303" opacity="1.000000" stroke="none" 
	d="
M50.055511,292.985535 
	C51.244255,291.878265 52.675842,290.360382 53.556129,290.631653 
	C54.600018,290.953308 55.522095,292.738251 55.808243,294.040405 
	C55.973331,294.791687 54.779064,295.841675 54.196636,296.757233 
	C52.815865,295.627106 51.435101,294.496979 50.055511,292.985535 
z"/>
</svg>